<svg xmlns="http://www.w3.org/2000/svg" x="0px" y="0px"
width="48" height="48"
viewBox="0 0 172 172"
style=" fill:#000000;"><defs><radialGradient cx="63.468" cy="73.98448" r="71.12558" gradientUnits="userSpaceOnUse" id="color-1_cPJTvqEzTYvb_gr1"><stop offset="0" stop-color="#ffe16e"></stop><stop offset="0.629" stop-color="#ffd226"></stop><stop offset="0.75" stop-color="#fdcd23"></stop><stop offset="0.899" stop-color="#f6bd1b"></stop><stop offset="0.999" stop-color="#f0af13"></stop></radialGradient><linearGradient x1="16.05333" y1="46.53675" x2="94.78275" y2="148.37867" gradientUnits="userSpaceOnUse" id="color-2_cPJTvqEzTYvb_gr2"><stop offset="0" stop-color="#efae13"></stop><stop offset="0.388" stop-color="#fdd95e" stop-opacity="0.482"></stop><stop offset="0.534" stop-color="#fdd859" stop-opacity="0.605"></stop><stop offset="0.715" stop-color="#fdd449" stop-opacity="0.759"></stop><stop offset="0.915" stop-color="#fcce30" stop-opacity="0.928"></stop><stop offset="0.999" stop-color="#fccb23"></stop></linearGradient><linearGradient x1="15.27933" y1="47.03483" x2="94.05533" y2="148.94125" gradientUnits="userSpaceOnUse" id="color-3_cPJTvqEzTYvb_gr3"><stop offset="0" stop-color="#eeac13"></stop><stop offset="0.388" stop-color="#fad456" stop-opacity="0.534"></stop><stop offset="0.543" stop-color="#fad351" stop-opacity="0.652"></stop><stop offset="0.737" stop-color="#facf41" stop-opacity="0.8"></stop><stop offset="0.95" stop-color="#f9c828" stop-opacity="0.962"></stop><stop offset="0.999" stop-color="#f9c621"></stop></linearGradient><linearGradient x1="14.50175" y1="47.5365" x2="93.3315" y2="149.50383" gradientUnits="userSpaceOnUse" id="color-4_cPJTvqEzTYvb_gr4"><stop offset="0" stop-color="#edab14"></stop><stop offset="0.388" stop-color="#f8ce4f" stop-opacity="0.586"></stop><stop offset="0.555" stop-color="#f8cd4a" stop-opacity="0.699"></stop><stop offset="0.763" stop-color="#f8c93a" stop-opacity="0.84"></stop><stop offset="0.992" stop-color="#f7c221" stop-opacity="0.995"></stop><stop offset="0.999" stop-color="#f7c220"></stop></linearGradient><linearGradient x1="13.73133" y1="48.03458" x2="92.61842" y2="150.08433" gradientUnits="userSpaceOnUse" id="color-5_cPJTvqEzTYvb_gr5"><stop offset="0" stop-color="#ecaa14"></stop><stop offset="0.388" stop-color="#f6c848" stop-opacity="0.637"></stop><stop offset="0.569" stop-color="#f6c743" stop-opacity="0.745"></stop><stop offset="0.794" stop-color="#f5c333" stop-opacity="0.878"></stop><stop offset="0.999" stop-color="#f5be1f"></stop></linearGradient><linearGradient x1="12.95733" y1="48.53267" x2="91.91967" y2="150.67558" gradientUnits="userSpaceOnUse" id="color-6_cPJTvqEzTYvb_gr6"><stop offset="0" stop-color="#eba814"></stop><stop offset="0.388" stop-color="#f3c241" stop-opacity="0.689"></stop><stop offset="0.584" stop-color="#f3c13c" stop-opacity="0.788"></stop><stop offset="0.827" stop-color="#f3bd2c" stop-opacity="0.912"></stop><stop offset="0.999" stop-color="#f3ba1d"></stop></linearGradient><linearGradient x1="12.18692" y1="49.03075" x2="91.23167" y2="151.28117" gradientUnits="userSpaceOnUse" id="color-7_cPJTvqEzTYvb_gr7"><stop offset="0" stop-color="#eaa714"></stop><stop offset="0.388" stop-color="#f1bd39" stop-opacity="0.741"></stop><stop offset="0.611" stop-color="#f1bc34" stop-opacity="0.835"></stop><stop offset="0.888" stop-color="#f0b724" stop-opacity="0.953"></stop><stop offset="0.999" stop-color="#f0b51c"></stop></linearGradient><linearGradient x1="11.42008" y1="49.52883" x2="90.55442" y2="151.8975" gradientUnits="userSpaceOnUse" id="color-8_cPJTvqEzTYvb_gr8"><stop offset="0" stop-color="#e9a514"></stop><stop offset="0.388" stop-color="#eeb732" stop-opacity="0.793"></stop><stop offset="0.637" stop-color="#eeb62d" stop-opacity="0.877"></stop><stop offset="0.948" stop-color="#eeb21d" stop-opacity="0.983"></stop><stop offset="0.999" stop-color="#eeb11a"></stop></linearGradient><linearGradient x1="11.008" y1="49.74383" x2="90.24625" y2="152.24867" gradientUnits="userSpaceOnUse" id="color-9_cPJTvqEzTYvb_gr9"><stop offset="0" stop-color="#e8a414"></stop><stop offset="0.388" stop-color="#ecb12b" stop-opacity="0.845"></stop><stop offset="0.684" stop-color="#ecb026" stop-opacity="0.92"></stop><stop offset="0.999" stop-color="#ecad19"></stop></linearGradient><linearGradient x1="10.72133" y1="49.837" x2="90.085" y2="152.50308" gradientUnits="userSpaceOnUse" id="color-10_cPJTvqEzTYvb_gr10"><stop offset="0" stop-color="#e7a315"></stop><stop offset="0.388" stop-color="#eaab24" stop-opacity="0.896"></stop><stop offset="0.765" stop-color="#eaaa1f" stop-opacity="0.96"></stop><stop offset="0.999" stop-color="#eaa918"></stop></linearGradient><linearGradient x1="10.42033" y1="49.90508" x2="89.9345" y2="152.76467" gradientUnits="userSpaceOnUse" id="color-11_cPJTvqEzTYvb_gr11"><stop offset="0" stop-color="#e6a115"></stop><stop offset="0.388" stop-color="#e7a61c" stop-opacity="0.948"></stop><stop offset="0.959" stop-color="#e7a417" stop-opacity="0.997"></stop><stop offset="0.999" stop-color="#e7a416"></stop></linearGradient><radialGradient cx="68.70434" cy="42.22261" r="15.23612" gradientUnits="userSpaceOnUse" id="color-12_cPJTvqEzTYvb_gr12"><stop offset="0.425" stop-color="#ffe16e"></stop><stop offset="1" stop-color="#ffe16e" stop-opacity="0"></stop></radialGradient><linearGradient x1="101.37781" y1="105.11683" x2="65.41863" y2="66.06541" gradientUnits="userSpaceOnUse" id="color-13_cPJTvqEzTYvb_gr13"><stop offset="0" stop-color="#ffdb53" stop-opacity="0"></stop><stop offset="0.605" stop-color="#f6c02d"></stop><stop offset="0.999" stop-color="#f2b416" stop-opacity="0.636"></stop></linearGradient><radialGradient cx="63.10549" cy="85.61217" r="13.69906" gradientUnits="userSpaceOnUse" id="color-14_cPJTvqEzTYvb_gr14"><stop offset="0.425" stop-color="#ffe16e"></stop><stop offset="1" stop-color="#ffe16e" stop-opacity="0"></stop></radialGradient><linearGradient x1="115.87067" y1="64.67917" x2="84.65983" y2="55.513" gradientUnits="userSpaceOnUse" id="color-15_cPJTvqEzTYvb_gr15"><stop offset="0" stop-color="#f4ba22" stop-opacity="0.409"></stop><stop offset="1" stop-color="#fbce32"></stop></linearGradient><linearGradient x1="121.16683" y1="71.552" x2="83.94317" y2="47.62608" gradientUnits="userSpaceOnUse" id="color-16_cPJTvqEzTYvb_gr16"><stop offset="0" stop-color="#f2b721" stop-opacity="0.468"></stop><stop offset="1" stop-color="#f9c930"></stop></linearGradient><linearGradient x1="122.33142" y1="80.05167" x2="86.89942" y2="39.16225" gradientUnits="userSpaceOnUse" id="color-17_cPJTvqEzTYvb_gr17"><stop offset="0" stop-color="#f0b320" stop-opacity="0.527"></stop><stop offset="1" stop-color="#f6c32d"></stop></linearGradient><linearGradient x1="118.8305" y1="87.39392" x2="93.5465" y2="32.02783" gradientUnits="userSpaceOnUse" id="color-18_cPJTvqEzTYvb_gr18"><stop offset="0" stop-color="#eeb01f" stop-opacity="0.586"></stop><stop offset="1" stop-color="#f3be2a"></stop></linearGradient><linearGradient x1="112.76392" y1="90.773" x2="103.73033" y2="27.93925" gradientUnits="userSpaceOnUse" id="color-19_cPJTvqEzTYvb_gr19"><stop offset="0" stop-color="#ecac1e" stop-opacity="0.645"></stop><stop offset="1" stop-color="#f0b827"></stop></linearGradient><linearGradient x1="106.37125" y1="90.15308" x2="115.412" y2="27.27275" gradientUnits="userSpaceOnUse" id="color-20_cPJTvqEzTYvb_gr20"><stop offset="0" stop-color="#eaa91c" stop-opacity="0.705"></stop><stop offset="1" stop-color="#eeb325"></stop></linearGradient><linearGradient x1="100.30108" y1="88.45458" x2="126.76758" y2="30.50133" gradientUnits="userSpaceOnUse" id="color-21_cPJTvqEzTYvb_gr21"><stop offset="0" stop-color="#e8a51b" stop-opacity="0.764"></stop><stop offset="1" stop-color="#ebad22"></stop></linearGradient><linearGradient x1="95.75025" y1="83.28383" x2="134.99492" y2="37.9905" gradientUnits="userSpaceOnUse" id="color-22_cPJTvqEzTYvb_gr22"><stop offset="0" stop-color="#e6a21a" stop-opacity="0.823"></stop><stop offset="1" stop-color="#e8a81f"></stop></linearGradient><linearGradient x1="94.643" y1="75.45783" x2="138.16617" y2="47.48633" gradientUnits="userSpaceOnUse" id="color-23_cPJTvqEzTYvb_gr23"><stop offset="0" stop-color="#e49e19" stop-opacity="0.882"></stop><stop offset="1" stop-color="#e5a21c"></stop></linearGradient><linearGradient x1="98.20842" y1="67.05133" x2="135.90867" y2="55.98242" gradientUnits="userSpaceOnUse" id="color-24_cPJTvqEzTYvb_gr24"><stop offset="0" stop-color="#e29b18" stop-opacity="0.941"></stop><stop offset="1" stop-color="#e39d1a"></stop></linearGradient><linearGradient x1="98.45567" y1="60.76258" x2="139.73567" y2="60.76258" gradientUnits="userSpaceOnUse" id="color-25_cPJTvqEzTYvb_gr25"><stop offset="0" stop-color="#e09717"></stop><stop offset="1" stop-color="#e09717"></stop></linearGradient><radialGradient cx="114.90317" cy="24.83794" r="23.70733" gradientUnits="userSpaceOnUse" id="color-26_cPJTvqEzTYvb_gr26"><stop offset="0" stop-color="#ffe16e"></stop><stop offset="0.629" stop-color="#ffd226"></stop><stop offset="0.75" stop-color="#fdcd23"></stop><stop offset="0.899" stop-color="#f6bd1b"></stop><stop offset="0.999" stop-color="#f0af13"></stop></radialGradient><radialGradient cx="120.65083" cy="42.72244" r="27.39458" gradientUnits="userSpaceOnUse" id="color-27_cPJTvqEzTYvb_gr27"><stop offset="0" stop-color="#ffe16e"></stop><stop offset="0.629" stop-color="#ffd226"></stop><stop offset="0.75" stop-color="#fdcd23"></stop><stop offset="0.899" stop-color="#f6bd1b"></stop><stop offset="0.999" stop-color="#f0af13"></stop></radialGradient><radialGradient cx="124.06933" cy="61.94024" r="29.67358" gradientUnits="userSpaceOnUse" id="color-28_cPJTvqEzTYvb_gr28"><stop offset="0" stop-color="#ffe16e"></stop><stop offset="0.629" stop-color="#ffd226"></stop><stop offset="0.75" stop-color="#fdcd23"></stop><stop offset="0.899" stop-color="#f6bd1b"></stop><stop offset="0.999" stop-color="#f0af13"></stop></radialGradient><radialGradient cx="127.14687" cy="89.70061" r="26.16845" gradientUnits="userSpaceOnUse" id="color-29_cPJTvqEzTYvb_gr29"><stop offset="0" stop-color="#ffe16e"></stop><stop offset="0.629" stop-color="#ffd226"></stop><stop offset="0.75" stop-color="#fdcd23"></stop><stop offset="0.899" stop-color="#f6bd1b"></stop><stop offset="0.999" stop-color="#f0af13"></stop></radialGradient><radialGradient cx="128.47098" cy="89.09282" r="8.30365" gradientUnits="userSpaceOnUse" id="color-30_cPJTvqEzTYvb_gr30"><stop offset="0.425" stop-color="#ffe16e"></stop><stop offset="1" stop-color="#ffe16e" stop-opacity="0"></stop></radialGradient><radialGradient cx="126.39233" cy="66.3099" r="7.27697" gradientUnits="userSpaceOnUse" id="color-31_cPJTvqEzTYvb_gr31"><stop offset="0.425" stop-color="#ffe16e"></stop><stop offset="1" stop-color="#ffe16e" stop-opacity="0"></stop></radialGradient><radialGradient cx="122.44087" cy="45.52662" r="7.27697" gradientUnits="userSpaceOnUse" id="color-32_cPJTvqEzTYvb_gr32"><stop offset="0.425" stop-color="#ffe16e"></stop><stop offset="1" stop-color="#ffe16e" stop-opacity="0"></stop></radialGradient><radialGradient cx="117.65533" cy="26.47637" r="5.21426" gradientUnits="userSpaceOnUse" id="color-33_cPJTvqEzTYvb_gr33"><stop offset="0.425" stop-color="#ffe16e"></stop><stop offset="1" stop-color="#ffe16e" stop-opacity="0"></stop></radialGradient></defs><g fill="none" fill-rule="nonzero" stroke="none" stroke-width="1" stroke-linecap="butt" stroke-linejoin="miter" stroke-miterlimit="10" stroke-dasharray="" stroke-dashoffset="0" font-family="none" font-weight="none" font-size="none" text-anchor="none" style="mix-blend-mode: normal"><path d="M0,172v-172h172v172z" fill="none"></path><g><path d="M22.44958,97.137h11.20867c6.57183,0 12.78892,2.78783 17.29317,7.57158c2.07117,2.20017 4.43258,4.23192 7.052,6.02358c0.52317,0.35833 1.075,0.63425 1.60892,0.9675l9.77892,6.85492l12.24425,8.61792l0.946,1.00692c3.39342,3.61917 5.84083,8.03742 7.138,12.86417l2.8165,10.52783c0.54108,2.064 2.39725,3.46508 4.48275,3.42208c13.36583,-0.99258 15.60542,-24.54583 5.23883,-48.418c-0.129,-0.29742 -0.31892,-0.774 -0.15767,-1.28283c0.20783,-0.645 1.22192,-0.97825 3.08167,-1.14308c1.65192,-0.14692 32.00275,-1.19325 37.40642,-1.19325c3.07808,0 -13.93917,-67.424 -13.93917,-72.72375c0,-5.93758 -5.15283,-11.77842 -11.09042,-11.77842c-0.01075,0 -50.2455,-1.15383 -59.85958,2.67675c-3.36475,1.34017 -6.3425,3.68367 -8.80783,6.58258c-4.54008,5.33558 -11.1155,8.514 -18.12092,8.514h-8.3205c-2.49758,0 -4.51858,13.63817 -4.51858,30.45833c0,16.81658 2.021,30.45117 4.51858,30.45117z" fill="url(#color-1_cPJTvqEzTYvb_gr1)"></path><g opacity="0.31"><path d="M23.78975,36.15583c-1.51217,4.66192 -2.56925,14.97475 -2.58717,26.98608c0,0.74533 0.00358,1.4835 0.01075,2.21808c0.1505,15.8885 2.11417,28.45525 4.50783,28.45525h11.20867c6.57183,0 12.78892,2.78783 17.29317,7.57158c2.07117,2.20017 4.43258,4.23192 7.052,6.02358c0.52317,0.35833 1.075,0.63425 1.60892,0.9675l9.77892,6.85492l11.36275,7.998l0.9675,0.7095c0.03225,0.03225 0.92092,0.98183 0.94958,1.01767c2.79142,3.00642 4.93067,6.55392 6.30667,10.4275c0.2795,0.76325 0.59842,1.81675 0.81342,2.60508l1.8705,6.9875c0.03225,0.12542 0.99258,3.49017 1.10367,3.54033c0.20425,0.602 0.53033,1.13233 0.94242,1.57308c0.93167,0.989 2.279,1.55158 3.70875,1.45483c1.71642,-0.19708 3.21783,-0.81342 4.54367,-1.72717c0.6235,-1.06425 1.10008,-2.33992 1.43333,-3.80908c0.33683,-1.59458 0.54467,-3.50808 0.71667,-5.633c-0.70233,-0.54108 -1.30433,-1.58742 -1.548,-2.50475l-1.96367,-7.34583c-0.02508,-0.09675 -0.83492,-3.09958 -0.87075,-3.19275c-1.04633,-3.73742 -2.78067,-7.224 -5.11342,-10.27342c-0.25083,-0.33325 -0.59483,-0.75608 -0.86,-1.07858c-0.36908,-0.4515 -0.89583,-0.989 -1.29717,-1.41542l-0.95675,-0.98183l-9.59975,-6.75817l-2.65525,-1.8705l-6.89075,-4.83033c-0.05017,-0.02867 -1.54442,-1.07142 -1.59458,-1.10367c-0.03942,-0.02867 -1.2685,-0.88867 -1.30792,-0.91733c-0.53033,-0.33683 -1.07858,-0.6235 -1.59817,-0.98542c-1.61967,-1.12517 -3.14258,-2.3435 -4.55442,-3.63708c-0.85642,-0.78475 -1.68058,-1.58742 -2.4725,-2.40442c-3.75533,-3.88792 -8.65733,-6.41058 -13.94992,-7.12725c-1.02483,-0.15408 -2.37217,-0.22933 -3.42208,-0.22933h-7.826c-0.05733,0 -3.18558,-0.08242 -3.23575,-0.23292c-2.26467,-0.42642 -4.11367,-12.23708 -4.33225,-27.27633c-0.01433,-1.06783 -0.0215,-2.15358 -0.0215,-3.2465c0.00717,-6.00925 0.28308,-11.55625 0.73817,-16.24683c-0.65575,-0.00358 -1.31508,-0.0215 -1.98158,-0.086c0.02867,-0.18633 -4.82317,-0.34758 -4.78733,-0.473h-1.49067z" fill="url(#color-2_cPJTvqEzTYvb_gr2)" opacity="0.091"></path><path d="M23.65717,36.15583c-1.59817,4.19608 -2.74483,14.71675 -2.77708,27.09717c0,0.74892 0,1.49067 0.00717,2.22883c0.13617,15.98167 2.10342,28.65592 4.51142,28.65592h11.20867c6.57183,0 12.78892,2.78783 17.29317,7.57158c2.07117,2.20017 4.43258,4.23192 7.052,6.02358c0.52317,0.35833 1.075,0.63425 1.60892,0.9675l9.77892,6.85492l11.45233,8.05892l0.96392,0.74175c0.0645,0.06808 0.89583,0.96033 0.95675,1.02842c2.79858,3.04583 4.93425,6.63992 6.28875,10.5565c0.25083,0.688 0.61992,1.93142 0.80983,2.6445l1.88483,7.04483c0.0645,0.25083 1.02483,3.38625 1.24342,3.49017c0.24725,0.56975 0.60558,1.06067 1.04275,1.45483c0.99975,0.87792 2.35425,1.34017 3.76967,1.17892c1.69492,-0.26517 3.17483,-0.946 4.472,-1.92783c0.42642,-0.87792 0.70592,-1.97442 0.83492,-3.28233c0.09675,-1.42975 0.09675,-3.29308 0.19708,-5.41083c-0.63067,-0.48733 -1.25775,-1.73075 -1.47275,-2.5585l-1.97083,-7.36017c-0.05375,-0.1935 -0.81342,-3.00283 -0.88867,-3.18917c-1.07858,-3.72308 -2.84875,-7.18817 -5.21017,-10.21608c-0.22575,-0.301 -0.63067,-0.78117 -0.86717,-1.07142c-0.33325,-0.40492 -0.96392,-0.99975 -1.32225,-1.38317l-0.9675,-0.96033l-9.60333,-6.75817l-2.66958,-1.87767l-6.9015,-4.84108c-0.09675,-0.06092 -1.50142,-1.02483 -1.59458,-1.08933c-0.08242,-0.05733 -1.22908,-0.86 -1.30792,-0.92092c-0.53033,-0.34042 -1.07142,-0.63783 -1.591,-1.00333c-1.6125,-1.13592 -3.12108,-2.365 -4.52217,-3.66575c-0.84925,-0.79192 -1.677,-1.591 -2.47967,-2.40083c-3.79475,-3.83417 -8.72542,-6.29233 -14.02875,-6.93733c-0.92092,-0.13617 -2.47967,-0.20783 -3.42208,-0.20783h-7.82242c-0.11825,0 -2.99208,-0.16483 -3.09242,-0.46225c-2.20017,-0.85642 -3.97392,-12.556 -4.171,-27.34083c-0.01433,-1.07142 -0.01792,-2.15717 -0.01792,-3.2465c0.01792,-6.02358 0.301,-11.57417 0.76683,-16.24683c-0.5805,-0.08242 -1.16458,-0.16842 -1.75225,-0.29383c0.05733,-0.37267 -4.27492,-0.69517 -4.20325,-0.946z" fill="url(#color-3_cPJTvqEzTYvb_gr3)" opacity="0.182"></path><path d="M23.52458,36.15583c-1.68417,3.73025 -2.92042,14.45517 -2.97058,27.21183c-0.00358,0.74892 0,1.49783 0.00358,2.24317c0.12183,16.07483 2.09625,28.85658 4.51142,28.85658h11.20867c6.57183,0 12.78892,2.78783 17.29317,7.57158c2.07117,2.20017 4.43258,4.23192 7.052,6.02358c0.52317,0.35833 1.075,0.63425 1.60892,0.9675l9.77892,6.85492l11.54192,8.11983l0.96033,0.77042c0.09317,0.10033 0.87433,0.93525 0.96033,1.03917c2.80933,3.08525 4.93783,6.72233 6.27083,10.68908c0.22217,0.61275 0.63783,2.04967 0.80983,2.68033l1.89917,7.09858c0.09675,0.37625 1.05708,3.28233 1.38317,3.43642c0.28667,0.5375 0.68083,0.99258 1.14667,1.34017c1.06783,0.76683 2.43308,1.12517 3.83058,0.903c1.67342,-0.32967 3.12825,-1.075 4.40033,-2.1285c0.22933,-0.688 0.30817,-1.60892 0.23292,-2.75917c-0.14692,-1.2685 -0.35117,-3.07808 -0.32608,-5.19225c-0.559,-0.43358 -1.20758,-1.87767 -1.40108,-2.61225l-1.97442,-7.3745c-0.07883,-0.29383 -0.7955,-2.90608 -0.903,-3.18558c-1.11442,-3.70875 -2.91683,-7.15592 -5.3105,-10.16233c-0.20067,-0.26875 -0.66292,-0.80625 -0.87792,-1.06425c-0.29742,-0.36192 -1.02842,-1.0105 -1.34733,-1.35092l-0.98183,-0.93883l-9.60333,-6.75817l-2.68033,-1.88483l-6.91583,-4.84825c-0.14692,-0.08958 -1.45483,-0.97825 -1.59817,-1.075c-0.12183,-0.08242 -1.19325,-0.83492 -1.3115,-0.92092c-0.52675,-0.344 -1.06425,-0.65217 -1.58025,-1.02125c-1.60175,-1.14667 -3.09958,-2.38292 -4.48992,-3.69442c-0.84567,-0.7955 -1.67342,-1.59458 -2.48683,-2.39367c-3.83775,-3.77683 -8.7935,-6.17408 -14.10758,-6.74742c-0.817,-0.12183 -2.58358,-0.18633 -3.42208,-0.18633h-7.82242c-0.17558,0 -2.79858,-0.24725 -2.95267,-0.69517c-2.13208,-1.28283 -3.83417,-12.87492 -4.00617,-27.40533c-0.01075,-1.075 -0.01433,-2.15717 -0.01075,-3.2465c0.02508,-6.03433 0.31892,-11.59208 0.7955,-16.24325c-0.50525,-0.15767 -1.01408,-0.31533 -1.52292,-0.50525c0.086,-0.56258 -3.72667,-1.04275 -3.61917,-1.42258h-1.46558z" fill="url(#color-4_cPJTvqEzTYvb_gr4)" opacity="0.273"></path><path d="M23.392,36.15583c-1.77017,3.26083 -3.096,14.19717 -3.1605,27.31933c-0.00358,0.7525 -0.00358,1.50858 0.00358,2.2575c0.1075,16.168 2.0855,29.05725 4.51142,29.05725h11.20867c6.57183,0 12.78892,2.78783 17.29317,7.57158c2.07117,2.20017 4.43258,4.23192 7.052,6.02358c0.52317,0.35833 1.075,0.63425 1.60892,0.9675l9.77892,6.85492l11.62792,8.18433l0.96033,0.79908c0.12542,0.13258 0.84925,0.91017 0.9675,1.04992c2.8165,3.12108 4.94142,6.80833 6.25292,10.81808c0.19708,0.53392 0.65933,2.16792 0.80625,2.71975l1.9135,7.15592c0.13258,0.50167 1.08575,3.182 1.5265,3.38267c0.32608,0.50525 0.7525,0.92092 1.25058,1.2255c1.13233,0.65575 2.50833,0.91375 3.89508,0.62708c1.65192,-0.39775 3.08525,-1.20758 4.32867,-2.32558c0.03225,-0.50167 -0.086,-1.24342 -0.3655,-2.23242c-0.39058,-1.10367 -0.80267,-2.86308 -0.84567,-4.97008c-0.49092,-0.37983 -1.15742,-2.021 -1.32583,-2.666l-1.978,-7.39242c-0.10392,-0.39058 -0.774,-2.80933 -0.92092,-3.182c-1.15025,-3.69442 -2.98492,-7.12367 -5.41083,-10.105c-0.17558,-0.23292 -0.69875,-0.83133 -0.88508,-1.05708c-0.258,-0.31533 -1.09292,-1.01767 -1.37242,-1.31867l-0.99258,-0.91733l-9.60692,-6.76175l-2.69108,-1.892l-6.92658,-4.85542c-0.1935,-0.12183 -1.40825,-0.93167 -1.59817,-1.06067c-0.16125,-0.11108 -1.15383,-0.80625 -1.3115,-0.9245c-0.52675,-0.35117 -1.05708,-0.6665 -1.5695,-1.03917c-1.591,-1.15742 -3.07808,-2.40442 -4.45408,-3.72308c-0.8385,-0.80267 -1.66983,-1.60175 -2.494,-2.39008c-3.88075,-3.72308 -8.86158,-6.05583 -14.19,-6.55392c-0.71667,-0.1075 -2.6875,-0.16125 -3.42208,-0.16125h-7.81525c-0.23292,0 -2.60867,-0.32967 -2.80933,-0.9245c-2.064,-1.70925 -3.69083,-13.19383 -3.84492,-27.46625c-0.01075,-1.07858 -0.01433,-2.16075 -0.00717,-3.2465c0.03583,-6.04867 0.33683,-11.61 0.82417,-16.24325c-0.43,-0.23292 -0.86358,-0.46225 -1.29717,-0.71667c0.11108,-0.74892 -3.17483,-1.38675 -3.03508,-1.89558h-1.47992z" fill="url(#color-5_cPJTvqEzTYvb_gr5)" opacity="0.364"></path><path d="M23.25942,36.15583c-1.85975,2.795 -3.27158,13.93917 -3.354,27.434c-0.00358,0.75608 -0.00358,1.51575 0,2.27183c0.08958,16.26117 2.07833,29.25792 4.515,29.25792h11.20867c6.57183,0 12.78892,2.78783 17.29317,7.57158c2.07117,2.20017 4.43258,4.23192 7.052,6.02358c0.52317,0.35833 1.075,0.63425 1.60892,0.9675l9.77892,6.85492l11.7175,8.24525l0.95675,0.82775c0.15767,0.16842 0.82417,0.88867 0.97108,1.06067c2.82367,3.1605 4.945,6.89433 6.235,10.95067c0.16842,0.45867 0.67725,2.28258 0.80625,2.75917l1.92783,7.20967c0.16483,0.6235 1.118,3.07808 1.66625,3.32892c0.3655,0.473 0.82775,0.84925 1.3545,1.10725c1.20042,0.54467 2.58717,0.70233 3.956,0.35117c1.63042,-0.46583 3.04225,-1.34017 4.257,-2.52625c-0.16483,-0.31175 -0.48375,-0.87792 -0.9675,-1.70567c-0.63067,-0.93883 -1.25058,-2.64808 -1.36525,-4.74792c-0.41925,-0.32608 -1.10725,-2.16433 -1.25417,-2.71975l-1.98158,-7.40317c-0.13258,-0.48733 -0.75608,-2.709 -0.93525,-3.17842c-1.18608,-3.68008 -3.053,-7.09142 -5.50758,-10.04767c-0.1505,-0.20067 -0.73458,-0.85642 -0.89583,-1.04992c-0.22217,-0.26875 -1.15742,-1.02842 -1.3975,-1.28642l-1.00333,-0.89225l-9.60692,-6.76175l-2.70183,-1.89917l-6.93733,-4.86258c-0.24367,-0.1505 -1.36167,-0.88508 -1.59817,-1.04992c-0.20425,-0.13975 -1.11442,-0.78117 -1.3115,-0.92808c-0.52317,-0.35475 -1.0535,-0.68083 -1.56233,-1.05708c-1.58025,-1.16817 -3.05658,-2.42233 -4.42183,-3.75175c-0.83133,-0.80983 -1.66625,-1.60533 -2.50117,-2.38292c-3.92017,-3.66575 -8.92967,-5.934 -14.26883,-6.364c-0.61275,-0.09317 -2.79142,-0.13975 -3.42208,-0.13975h-7.81525c-0.29383,0 -2.41517,-0.41208 -2.666,-1.15742c-1.99592,-2.13925 -3.55108,-13.51633 -3.68367,-27.53075c-0.01075,-1.08217 -0.01075,-2.16433 -0.00358,-3.2465c0.043,-6.063 0.35475,-11.62792 0.85283,-16.23967c-0.35475,-0.30817 -0.7095,-0.60917 -1.06783,-0.9245c0.13975,-0.93525 -2.62658,-1.73433 -2.451,-2.36858z" fill="url(#color-6_cPJTvqEzTYvb_gr6)" opacity="0.455"></path><path d="M23.12683,36.15583c-1.94575,2.32917 -3.45075,13.67758 -3.5475,27.54508c-0.00358,0.75967 -0.00717,1.52292 -0.00358,2.28617c0.07525,16.35433 2.06758,29.45858 4.515,29.45858h11.20867c6.57183,0 12.78892,2.78783 17.29317,7.57158c2.07117,2.20017 4.43258,4.23192 7.052,6.02358c0.52317,0.35833 1.075,0.63425 1.60892,0.9675l9.77892,6.85492l11.8035,8.30617l0.95675,0.86c0.18992,0.20067 0.80267,0.86358 0.97825,1.075c2.83083,3.19992 4.94858,6.97675 6.22067,11.07967c0.13975,0.38342 0.69875,2.40083 0.80625,2.795l1.94217,7.267c0.19708,0.74892 1.15025,2.97417 1.806,3.27517c0.40492,0.44075 0.903,0.77758 1.45483,0.99258c1.2685,0.43358 2.66242,0.49092 4.01692,0.07167c1.60892,-0.53033 2.99567,-1.47275 4.18533,-2.72333c-0.35833,-0.12542 -0.8815,-0.50883 -1.56592,-1.1825c-0.87433,-0.774 -1.6985,-2.43308 -1.88483,-4.52933c-0.35117,-0.27233 -1.06067,-2.31125 -1.17892,-2.76992l-1.98517,-7.4175c-0.15767,-0.58408 -0.73458,-2.61225 -0.95317,-3.17483c-1.22192,-3.66575 -3.12108,-7.05917 -5.60792,-9.99033c-0.12542,-0.16842 -0.77042,-0.8815 -0.903,-1.04275c-0.18633,-0.22575 -1.2255,-1.03917 -1.42258,-1.25417l-1.01767,-0.87075l-9.6105,-6.76175l-2.71258,-1.90633l-6.94808,-4.87333c-0.29025,-0.18275 -1.31508,-0.8385 -1.60175,-1.03558c-0.24367,-0.16842 -1.07858,-0.7525 -1.31508,-0.92808c-0.52317,-0.35833 -1.04633,-0.69517 -1.55158,-1.075c-1.5695,-1.17892 -3.03508,-2.44383 -4.38958,-3.77683c-0.82775,-0.817 -1.66267,-1.60892 -2.50833,-2.37575c-3.96317,-3.612 -8.99775,-5.81575 -14.34767,-6.17408c-0.51242,-0.07525 -2.89533,-0.11467 -3.4185,-0.11467h-7.81167c-0.35117,0 -2.22167,-0.4945 -2.52267,-1.38675c-1.93142,-2.56567 -3.41133,-13.83525 -3.52242,-27.59525c-0.00717,-1.08217 -0.00717,-2.16792 0.00358,-3.2465c0.05375,-6.07375 0.37267,-11.64583 0.8815,-16.23967c-0.2795,-0.38342 -0.559,-0.75608 -0.84208,-1.13592c0.16842,-1.12158 -2.07833,-2.08192 -1.86692,-2.84158h-1.47275z" fill="url(#color-7_cPJTvqEzTYvb_gr7)" opacity="0.545"></path><path d="M22.99425,36.15583c-2.03175,1.86333 -3.62633,13.41958 -3.73742,27.65617c-0.00717,0.76325 -0.00717,1.53008 -0.00358,2.3005c0.06092,16.4475 2.06042,29.65567 4.515,29.65567h11.20867c6.57183,0 12.78892,2.78783 17.29317,7.57158c2.07117,2.20017 4.43258,4.23192 7.052,6.02358c0.52317,0.35833 1.075,0.63425 1.60892,0.9675l9.77892,6.85492l11.89308,8.37067l0.95317,0.88867c0.21858,0.23292 0.77758,0.8385 0.98542,1.08575c2.84158,3.23933 4.95217,7.06275 6.20275,11.21225c0.11108,0.30458 0.72025,2.5155 0.80267,2.83442l1.96008,7.32075c0.22933,0.87433 1.17892,2.87025 1.94933,3.225c0.44433,0.4085 0.97825,0.7095 1.55875,0.87433c1.33658,0.3225 2.74125,0.2795 4.07783,-0.20425c1.58742,-0.59842 2.95267,-1.60533 4.11367,-2.924c-0.55542,0.0645 -1.27567,-0.14333 -2.16792,-0.65575c-1.11442,-0.61275 -2.14642,-2.21808 -2.40442,-4.30717c-0.2795,-0.215 -1.0105,-2.45458 -1.10725,-2.82367l-1.98875,-7.43542c-0.18275,-0.68442 -0.71308,-2.5155 -0.97108,-3.17125c-1.25775,-3.65142 -3.18917,-7.02333 -5.70825,-9.933c-0.10033,-0.13258 -0.80625,-0.90658 -0.91017,-1.03558c-0.14692,-0.17917 -1.29,-1.04992 -1.44767,-1.22192l-1.02842,-0.84925l-9.6105,-6.76175l-2.72692,-1.9135l-6.95883,-4.8805c-0.34042,-0.21142 -1.2685,-0.7955 -1.60175,-1.02125c-0.28667,-0.1935 -1.03917,-0.72742 -1.31508,-0.93167c-0.51958,-0.36192 -1.03917,-0.7095 -1.54083,-1.09292c-1.55875,-1.18608 -3.01358,-2.46175 -4.35733,-3.8055c-0.82058,-0.82058 -1.66267,-1.6125 -2.5155,-2.37217c-4.00617,-3.55467 -9.06583,-5.6975 -14.4265,-5.98417c-0.4085,-0.06092 -2.99925,-0.09317 -3.4185,-0.09317h-7.81525c-0.4085,0 -2.02817,-0.57692 -2.38292,-1.61967c-1.86333,-2.99208 -3.27158,-14.15417 -3.35758,-27.65975c-0.00358,-1.08575 -0.00358,-2.1715 0.00717,-3.2465c0.06092,-6.08808 0.39417,-11.66375 0.90658,-16.23608c-0.20425,-0.45867 -0.4085,-0.903 -0.61275,-1.34375c0.19708,-1.3115 -1.53008,-2.4295 -1.28642,-3.31458h-1.46558z" fill="url(#color-8_cPJTvqEzTYvb_gr8)" opacity="0.636"></path><path d="M22.86167,36.15583c-2.11775,1.3975 -3.80192,13.16158 -3.93092,27.76725c-0.00717,0.76683 -0.00717,1.53725 -0.00717,2.31483c0.04658,16.54067 2.04967,29.85633 4.515,29.85633h11.20867c6.57183,0 12.78892,2.78783 17.29317,7.57158c2.07117,2.20017 4.43258,4.23192 7.052,6.02358c0.52317,0.35833 1.075,0.63425 1.60892,0.9675l9.77892,6.85492l11.97908,8.43158l0.94958,0.91733c0.25083,0.26875 0.7525,0.817 0.989,1.0965c2.84875,3.27875 4.95575,7.14517 6.18483,11.34125c0.08242,0.22933 0.73817,2.63375 0.80267,2.87025l1.97442,7.37808c0.26158,0.99975 1.21117,2.76633 2.08908,3.17125c0.48375,0.37625 1.0535,0.63783 1.66267,0.75967c1.40467,0.21142 2.8165,0.0645 4.14233,-0.48017c1.56592,-0.6665 2.90967,-1.73433 4.042,-3.12467c-0.7525,0.25083 -1.67342,0.22217 -2.76992,-0.129c-1.35808,-0.44792 -2.59792,-2.00308 -2.924,-4.085c-0.21142,-0.16125 -0.96033,-2.6015 -1.032,-2.87742l-1.99233,-7.44975c-0.21142,-0.78117 -0.69517,-2.41875 -0.98542,-3.16767c-1.29358,-3.63708 -3.25725,-6.99108 -5.805,-9.87925c-0.07525,-0.10033 -0.8385,-0.93167 -0.92092,-1.02842c-0.11108,-0.13617 -1.3545,-1.06067 -1.47275,-1.18967l-1.04275,-0.82417l-9.6105,-6.76533l-2.73767,-1.92067l-6.97317,-4.88767c-0.387,-0.24367 -1.22192,-0.74892 -1.60533,-1.00692c-0.32608,-0.22217 -1.00333,-0.69875 -1.31867,-0.93167c-0.51958,-0.3655 -1.032,-0.72383 -1.53367,-1.11083c-1.548,-1.19683 -2.99208,-2.48325 -4.32508,-3.83417c-0.81342,-0.82775 -1.65908,-1.61967 -2.52267,-2.365c-4.04558,-3.50092 -9.13392,-5.57925 -14.50892,-5.79425c-0.30817,-0.04658 -3.10317,-0.06808 -3.4185,-0.06808h-7.79375c-0.46942,0 -1.83467,-0.65933 -2.23958,-1.849c-1.79525,-3.42208 -3.13183,-14.47308 -3.19633,-27.72425c-0.00358,-1.08933 0,-2.1715 0.01075,-3.25008c0.07167,-6.10242 0.41208,-11.68167 0.93525,-16.23608c-0.13258,-0.53392 -0.258,-1.04992 -0.387,-1.55517c0.22575,-1.49783 -0.98183,-2.77708 -0.70233,-3.79117h-1.462z" fill="url(#color-9_cPJTvqEzTYvb_gr9)" opacity="0.727"></path><path d="M22.72908,36.15583c-2.20375,0.93167 -3.9775,12.9 -4.12083,27.88192c-0.00717,0.77042 -0.01075,1.548 -0.00717,2.32558c0.02867,16.63383 2.0425,30.057 4.51858,30.057h11.20867c6.57183,0 12.78892,2.78783 17.29317,7.57158c2.07117,2.20017 4.43258,4.23192 7.052,6.02358c0.52317,0.35833 1.075,0.63425 1.60892,0.9675l9.77892,6.85492l12.06867,8.4925l0.94958,0.946c0.28308,0.301 0.72742,0.79192 0.99617,1.10725c2.85592,3.31458 4.95933,7.23117 6.16692,11.47383c0.05733,0.15408 0.75967,2.752 0.80267,2.90967l1.98875,7.43183c0.29383,1.12517 1.24342,2.66242 2.22883,3.1175c0.52675,0.344 1.12517,0.56617 1.76658,0.64142c1.47275,0.10033 2.89533,-0.14692 4.20325,-0.75608c1.54442,-0.73458 2.86308,-1.86692 3.97033,-3.32175c-0.94958,0.44075 -2.06758,0.58767 -3.36833,0.39775c-1.60175,-0.28308 -3.04583,-1.78808 -3.44358,-3.86283c-0.13975,-0.1075 -0.91017,-2.74483 -0.96033,-2.93117l-1.99592,-7.46408c-0.2365,-0.87792 -0.67367,-2.322 -1.00333,-3.16408c-1.32942,-3.62275 -3.32533,-6.95883 -5.90533,-9.82192c-0.05017,-0.06808 -0.87433,-0.95675 -0.92808,-1.02125c-0.07525,-0.08958 -1.419,-1.07142 -1.50142,-1.15742l-1.0535,-0.80267l-9.61408,-6.76533l-2.74842,-1.92783l-6.98392,-4.89483c-0.43717,-0.27233 -1.17533,-0.70233 -1.60533,-0.99617c-0.3655,-0.25083 -0.96392,-0.67367 -1.31867,-0.93525c-0.516,-0.36908 -1.02483,-0.73817 -1.52292,-1.12875c-1.53725,-1.20758 -2.97058,-2.50117 -4.29283,-3.86283c-0.80983,-0.83492 -1.6555,-1.62325 -2.52983,-2.36142c-4.08858,-3.44717 -9.202,-5.461 -14.58775,-5.60433c-0.20425,-0.03225 -3.20708,-0.04658 -3.4185,-0.04658h-7.8045c-0.52675,0 -1.64117,-0.74175 -2.09625,-2.08192c-1.73075,-3.8485 -2.9885,-14.792 -3.03508,-27.78875c-0.00358,-1.09292 0.00358,-2.17508 0.01792,-3.25008c0.07883,-6.11317 0.43,-11.69958 0.96392,-16.2325c-0.05733,-0.60917 -0.1075,-1.19683 -0.15767,-1.763c0.25442,-1.68417 -0.43358,-3.12467 -0.11825,-4.26417h-1.462z" fill="url(#color-10_cPJTvqEzTYvb_gr10)" opacity="0.818"></path><path d="M22.5965,36.15583c-2.29333,0.46583 -4.15308,12.642 -4.31433,27.993c-0.00717,0.774 -0.01075,1.55517 -0.01075,2.33992c0.01433,16.727 2.03175,30.25767 4.51858,30.25767h11.20867c6.57183,0 12.78892,2.78783 17.29317,7.57158c2.07117,2.20017 4.43258,4.23192 7.052,6.02358c0.52317,0.35833 1.075,0.63425 1.60892,0.9675l9.77892,6.85492l12.15825,8.55342l0.946,0.97825c0.31533,0.33325 0.70592,0.77042 0.99975,1.118c2.86667,3.354 4.95933,7.31358 6.149,11.60283c0.02867,0.07525 0.77758,2.86667 0.79908,2.9455l2.00308,7.48917c0.32967,1.25058 1.27567,2.5585 2.37217,3.06375c0.56617,0.31175 1.20042,0.4945 1.8705,0.52675c1.54083,-0.00717 2.97058,-0.35833 4.26417,-1.032c1.52292,-0.79908 2.82008,-1.9995 3.89867,-3.52242c-1.14667,0.62708 -2.46533,0.95317 -3.97033,0.92092c-1.84183,-0.11825 -3.49375,-1.57308 -3.96317,-3.64425c-0.07167,-0.05375 -0.86,-2.89175 -0.88508,-2.98133l-1.9995,-7.47842c-0.26158,-0.97467 -0.65575,-2.22525 -1.01767,-3.1605c-1.36167,-3.60842 -3.39342,-6.92658 -6.00567,-9.76458c-0.02508,-0.03225 -0.91017,-0.98183 -0.93525,-1.01408c-0.03583,-0.04658 -1.4835,-1.08217 -1.5265,-1.12158l-1.06425,-0.78117l-9.61408,-6.76533l-2.75917,-1.935l-6.99467,-4.90558c-0.48375,-0.301 -1.12875,-0.65575 -1.60892,-0.98183c-0.4085,-0.2795 -0.92808,-0.645 -1.31867,-0.93883c-0.51242,-0.37625 -1.02125,-0.7525 -1.51217,-1.14667c-1.5265,-1.21833 -2.94908,-2.52267 -4.257,-3.8915c-0.80267,-0.84208 -1.65192,-1.62683 -2.54058,-2.35425c-4.128,-3.38983 -9.27008,-5.33917 -14.66658,-5.41083c-0.10392,-0.01433 -3.311,-0.0215 -3.4185,-0.0215h-7.80092c-0.58408,0 -1.44767,-0.82417 -1.95292,-2.31125c-1.66267,-4.2785 -2.84875,-15.1145 -2.87025,-27.85325c0,-1.0965 0.00717,-2.17867 0.0215,-3.25008c0.08958,-6.1275 0.44792,-11.7175 0.99258,-16.2325c0.01792,-0.68442 0.043,-1.34375 0.07167,-1.97442c0.28308,-1.8705 0.11467,-3.47225 0.46583,-4.73717h-1.46558z" fill="url(#color-11_cPJTvqEzTYvb_gr11)" opacity="0.909"></path><path d="M100.61642,151.34208c-2.0855,0.043 -3.94167,-1.35808 -4.48275,-3.42208l-2.8165,-10.52783c-1.29717,-4.82675 -3.741,-9.245 -7.138,-12.86417l-0.946,-1.00692l-12.24425,-8.61792l-9.77892,-6.85492c-0.53392,-0.33325 -1.08575,-0.60917 -1.60892,-0.9675c-2.61942,-1.79167 -4.98083,-3.82342 -7.052,-6.02358c-4.50425,-4.78375 -10.72133,-7.57158 -17.29317,-7.57158h-11.20867c-2.49758,0 -4.51858,-13.63817 -4.51858,-30.45833c0,-11.64225 0.97108,-21.74725 2.39367,-26.875h-1.45842c-2.49758,0 -4.51858,13.63817 -4.51858,30.45833c0,16.82017 2.02458,30.45833 4.51858,30.45833h11.20867c6.57183,0 12.78892,2.78783 17.29317,7.57158c2.07117,2.20017 4.43258,4.23192 7.052,6.02358c0.52317,0.35833 1.075,0.63425 1.60892,0.9675l9.77892,6.85492l12.24425,8.61792l0.946,1.00692c3.39342,3.61917 5.84083,8.03742 7.138,12.86417l2.8165,10.52783c0.54108,2.064 2.39725,3.46508 4.48275,3.42208c3.49375,-0.258 6.20633,-2.08908 8.15208,-5.031c-1.34017,0.817 -2.86308,1.31867 -4.56875,1.44767z" fill="#e5a015"></path></g><path d="M72.14325,58.8885c-14.20792,2.87383 -27.23333,-2.24317 -29.0895,-11.42367c-1.85617,-9.1805 8.15567,-18.95583 22.36717,-21.82608c14.2115,-2.87025 27.23333,2.24317 29.0895,11.42367c1.85617,9.1805 -8.15567,18.95225 -22.36717,21.82608z" fill="url(#color-12_cPJTvqEzTYvb_gr12)" opacity="0.59"></path><path d="M98.126,106.46442c-0.86,-6.61842 -2.94192,-13.33 -6.15975,-19.61517c-1.978,-3.85925 -4.39675,-7.5895 -7.16308,-10.96858c-4.644,-5.67242 -10.48483,-10.63533 -17.12117,-13.87825c-2.24317,-1.0965 -4.59383,-1.96008 -6.99825,-2.61583c-2.19658,-0.59483 -5.02742,-1.53008 -7.32433,-1.20042c-0.64858,0.00358 -1.29358,0.15408 -1.83108,0.53033c-0.46583,0.32967 -0.817,0.82058 -0.89225,1.39392c-0.00717,0.04658 -0.01075,0.09675 -0.01433,0.14333c-0.06092,1.2255 1.11083,2.279 2.71617,2.3435c13.27625,0.7095 26.87142,10.99008 34.69383,26.26225c3.20708,6.26367 5.17792,12.96092 5.848,19.49692z" fill="url(#color-13_cPJTvqEzTYvb_gr13)" opacity="0.55"></path><path d="M72.9925,73.95642c-10.87542,-9.24142 -24.11225,-11.53117 -29.56967,-5.11342c-5.45383,6.41775 -1.06067,19.1135 9.81475,28.35492c10.87542,9.24142 24.11225,11.53117 29.56967,5.11342c5.45742,-6.41775 1.06067,-19.1135 -9.81475,-28.35492z" fill="url(#color-14_cPJTvqEzTYvb_gr14)" opacity="0.43"></path><g opacity="0.87"><path d="M118.93442,64.98375c0,4.42183 -2.35067,8.26317 -5.84083,10.42033c5.73692,1.55875 9.81833,7.16667 8.88308,13.62383c-0.8815,6.09167 2.63017,13.68117 -3.48658,13.68117l-15.22917,0.72025c-8.27392,-0.80625 -14.02875,-8.13775 -15.04642,-14.06817c-0.46225,-2.70183 -0.043,-5.26033 1.01767,-7.44975c1.45842,-3.03867 0.52317,-6.58975 -1.6125,-9.19483c-1.73075,-2.09625 -2.76992,-4.78733 -2.76992,-7.73283c0,-1.634 0.31892,-3.19633 0.89942,-4.62608c1.2685,-3.13542 0.86,-6.63275 -1.19683,-9.30233c-1.45483,-1.88842 -2.322,-4.257 -2.36142,-6.82625c-0.172,-0.26875 -0.22933,-0.66292 -0.11467,-0.96392c0.06808,-3.11033 1.34375,-5.98058 3.32533,-8.00517c0.34042,-0.34758 0.2365,-0.88867 -0.1935,-1.12158c-2.89175,-1.58383 -4.74792,-4.80167 -4.28208,-8.43875c0.50883,-4.03842 4.63683,-7.28492 8.686,-7.28492h12.20125c5.83367,0 9.86133,3.28233 10.18742,7.75433c0.18992,2.58 -0.78475,4.93067 -2.44383,6.58975c3.92375,2.03533 6.63275,6.106 6.63275,10.85392v0c0,4.11008 -2.02817,7.72925 -5.117,9.95092c4.58667,1.75225 7.86183,6.18842 7.86183,11.42008z" fill="url(#color-15_cPJTvqEzTYvb_gr15)" opacity="0.091"></path><path d="M120.69383,65.01958c0,4.42542 -2.35067,8.27033 -5.84083,10.4275c5.73692,1.55875 9.81833,7.17383 8.88308,13.63458c-0.8815,6.09525 2.61942,13.67042 -3.49733,13.67042l-15.72725,0.30458c-8.27392,-0.80625 -13.51633,-7.70417 -14.534,-13.63817c-0.46942,-2.74483 -0.0215,-5.33917 1.06783,-7.55367c1.462,-2.97417 0.54467,-6.47508 -1.58025,-9.0085c-1.77375,-2.11417 -2.85233,-4.8375 -2.85233,-7.83317c0,-1.65908 0.32608,-3.25367 0.92092,-4.70492c1.25417,-3.08167 0.83133,-6.52883 -1.22192,-9.12675c-1.376,-1.7415 -2.19658,-3.9345 -2.279,-6.32458c-0.344,-0.54108 -0.45867,-1.32942 -0.22933,-1.92783c0.13617,-2.99208 1.42975,-5.81933 3.35758,-7.69342c0.34758,-0.33683 0.2365,-0.88867 -0.1935,-1.12517c-2.86667,-1.5695 -4.71567,-4.73 -4.28567,-8.33483c0.473,-4.085 4.61175,-7.3745 8.70033,-7.3745h12.1905c5.83367,0 9.86133,3.28592 10.18742,7.7615c0.18992,2.58 -0.78475,4.93425 -2.44383,6.59333c3.92375,2.03533 6.63275,6.10958 6.63275,10.86108v0c0,4.11367 -2.02817,7.73642 -5.117,9.95808c4.58667,1.75942 7.86183,6.19917 7.86183,11.43442z" fill="url(#color-16_cPJTvqEzTYvb_gr16)" opacity="0.182"></path><path d="M122.45325,65.05542c0,4.429 -2.35067,8.2775 -5.84083,10.43467c5.73692,1.55875 9.81833,7.17742 8.88308,13.64533c-0.8815,6.09883 2.60508,13.65608 -3.51167,13.65608l-16.22892,-0.11108c-8.27392,-0.80625 -13.00033,-7.267 -14.02158,-13.20817c-0.47658,-2.78783 -0.00358,-5.418 1.12158,-7.65758c1.462,-2.90608 0.56258,-6.35683 -1.548,-8.82575c-1.82033,-2.1285 -2.93833,-4.89125 -2.93833,-7.9335c0,-1.68417 0.33325,-3.30742 0.94242,-4.78375c1.23983,-3.02433 0.80267,-6.42492 -1.24342,-8.94758c-1.28642,-1.59458 -2.06758,-3.61558 -2.193,-5.81575c-0.516,-0.80983 -0.688,-1.99233 -0.344,-2.89533c0.20067,-2.87383 1.51933,-5.6545 3.38625,-7.38167c0.35475,-0.32608 0.2365,-0.88867 -0.1935,-1.12517c-2.84517,-1.55875 -4.67625,-4.66192 -4.29283,-8.2345c0.44792,-4.13158 4.59025,-7.46408 8.71825,-7.46408h12.17975c5.83367,0 9.86133,3.2895 10.18742,7.76867c0.18992,2.58358 -0.78475,4.93783 -2.44383,6.59692c3.92375,2.03892 6.63275,6.11317 6.63275,10.86825v0c0,4.11725 -2.02817,7.74 -5.117,9.96883c4.59383,1.763 7.86542,6.20275 7.86542,11.44517z" fill="url(#color-17_cPJTvqEzTYvb_gr17)" opacity="0.273"></path><path d="M124.21625,65.09125c0,4.43258 -2.35067,8.28467 -5.84083,10.44183c5.73692,1.56233 9.81833,7.18458 8.88308,13.65608c-0.8815,6.106 2.59075,13.64175 -3.526,13.64175l-16.727,-0.53033c-8.27392,-0.80625 -12.48792,-6.83342 -13.50917,-12.77817c-0.48375,-2.83083 0.01075,-5.50042 1.17175,-7.7615c1.45842,-2.84158 0.5805,-6.23858 -1.51575,-8.643c-1.86692,-2.14283 -3.02075,-4.94142 -3.02075,-8.03025c0,-1.70925 0.344,-3.36117 0.9675,-4.86258c1.2255,-2.967 0.774,-6.32458 -1.26492,-8.76842c-1.20758,-1.44767 -1.94933,-3.29667 -2.11775,-5.31408c-0.688,-1.08217 -0.91733,-2.65883 -0.45867,-3.85925c0.26875,-2.75558 1.6125,-5.48967 3.41492,-7.06992c0.36192,-0.31533 0.2365,-0.89225 -0.1935,-1.12517c-2.82367,-1.548 -4.644,-4.59383 -4.29642,-8.13058c0.41208,-4.17817 4.56875,-7.55367 8.73617,-7.55367h12.169c5.83367,0 9.86133,3.29308 10.18742,7.77225c0.18992,2.58358 -0.78475,4.94142 -2.44383,6.60408c3.92375,2.03892 6.63275,6.12033 6.63275,10.879v0c0,4.12083 -2.02817,7.74717 -5.117,9.976c4.59383,1.76658 7.869,6.20992 7.869,11.45592z" fill="url(#color-18_cPJTvqEzTYvb_gr18)" opacity="0.364"></path><path d="M125.97567,65.12708c0,4.43617 -2.35067,8.28825 -5.84083,10.45258c5.73692,1.56233 9.81833,7.18817 8.88308,13.66683c-0.8815,6.10958 2.58,13.62742 -3.53675,13.62742l-17.22867,-0.946c-8.27392,-0.80625 -11.9755,-6.39983 -12.99675,-12.34817c-0.49092,-2.87383 0.02508,-5.57925 1.22192,-7.86542c1.45842,-2.77708 0.59483,-6.11675 -1.4835,-8.45667c-1.91708,-2.15717 -3.10317,-4.99517 -3.10317,-8.13058c0,-1.73792 0.35117,-3.4185 0.989,-4.94142c1.21117,-2.90967 0.74892,-6.22425 -1.29,-8.59283c-1.12158,-1.30433 -1.8275,-2.97775 -2.03533,-4.80883c-0.86,-1.35092 -1.14667,-3.32175 -0.57333,-4.82317c0.33683,-2.64092 1.70567,-5.32125 3.44717,-6.75458c0.36908,-0.30458 0.2365,-0.89225 -0.1935,-1.12517c-2.80217,-1.53725 -4.61533,-4.52575 -4.3,-8.03025c0.37625,-4.22833 4.54367,-7.63967 8.75408,-7.63967h12.15825c5.83367,0 9.86133,3.29308 10.18742,7.77942c0.18992,2.58717 -0.78475,4.945 -2.44383,6.60767c3.92375,2.0425 6.63275,6.12392 6.63275,10.88617v0c0,4.12442 -2.02817,7.75075 -5.117,9.98317c4.59383,1.763 7.869,6.20992 7.869,11.4595z" fill="url(#color-19_cPJTvqEzTYvb_gr19)" opacity="0.455"></path><path d="M127.73508,65.15933c0,4.43975 -2.35067,8.29542 -5.84083,10.45975c5.73692,1.56233 9.81833,7.19533 8.88308,13.67758c-0.8815,6.11317 2.56567,13.61667 -3.55108,13.61667l-17.72675,-1.36167c-8.27392,-0.80983 -11.46308,-5.96625 -12.48433,-11.91817c-0.49808,-2.91683 0.03942,-5.66167 1.27567,-7.96933c1.45483,-2.71617 0.60917,-5.9985 -1.45125,-8.27392c-1.96725,-2.1715 -3.18558,-5.04533 -3.18558,-8.23092c0,-1.763 0.35833,-3.47225 1.0105,-5.02025c1.19683,-2.85233 0.72742,-6.12392 -1.3115,-8.41367c-1.03558,-1.161 -1.70208,-2.65883 -1.95292,-4.30358c-1.032,-1.62325 -1.376,-3.98825 -0.68442,-5.78708c0.40492,-2.52267 1.806,-5.14925 3.47583,-6.44283c0.37983,-0.29383 0.2365,-0.89225 -0.1935,-1.12517c-2.78067,-1.5265 -4.58308,-4.45408 -4.30717,-7.92992c0.34042,-4.27492 4.52217,-7.72925 8.772,-7.72925h12.1475c5.83367,0 9.86133,3.29667 10.18742,7.783c0.18992,2.59075 -0.78475,4.94858 -2.44383,6.61483c3.92375,2.0425 6.63275,6.1275 6.63275,10.89333v0c0,4.128 -2.02817,7.75792 -5.117,9.99033c4.59025,1.76658 7.86542,6.22067 7.86542,11.47025z" fill="url(#color-20_cPJTvqEzTYvb_gr20)" opacity="0.545"></path><path d="M129.4945,65.19517c0,4.44333 -2.35067,8.30258 -5.84083,10.46692c5.73692,1.56592 9.81833,7.2025 8.88308,13.68833c-0.8815,6.11675 2.55133,13.60233 -3.56542,13.60233l-18.22842,-1.77733c-8.27392,-0.80983 -10.95067,-5.52908 -11.97192,-11.48817c-0.50525,-2.95983 0.05375,-5.74408 1.32583,-8.06967c1.44767,-2.65167 0.6235,-5.87667 -1.419,-8.09117c-2.01742,-2.18225 -3.27158,-5.0955 -3.27158,-8.32767c0,-1.78808 0.3655,-3.526 1.03558,-5.09908c1.1825,-2.795 0.70592,-6.03075 -1.333,-8.2345c-0.946,-1.02125 -1.58025,-2.33992 -1.8705,-3.79833c-1.20758,-1.892 -1.60533,-4.65117 -0.79908,-6.751c0.473,-2.40442 1.90633,-4.97367 3.50808,-6.13108c0.39058,-0.28308 0.2365,-0.89225 -0.1935,-1.12875c-2.75917,-1.51575 -4.55442,-4.386 -4.31075,-7.826c0.30458,-4.3215 4.49708,-7.81883 8.78992,-7.81883h12.13675c5.83367,0 9.86133,3.30025 10.18742,7.79017c0.18992,2.59075 -0.78475,4.95217 -2.44383,6.61842c3.92375,2.04608 6.63275,6.13467 6.63275,10.9005v0c0,4.13158 -2.02817,7.76508 -5.117,9.9975c4.59383,1.76658 7.86542,6.22067 7.86542,11.47742z" fill="url(#color-21_cPJTvqEzTYvb_gr21)" opacity="0.636"></path><path d="M131.25392,65.231c0,4.44692 -2.35067,8.30975 -5.84083,10.47408c5.73692,1.56592 9.81833,7.20608 8.88308,13.6955c-0.8815,6.12392 2.54058,13.588 -3.57617,13.588l-18.7265,-2.19658c-8.27392,-0.80983 -10.43825,-5.0955 -11.45592,-11.05817c-0.51242,-3.00283 0.06808,-5.8265 1.37958,-8.17358c1.44408,-2.58717 0.63783,-5.75483 -1.38675,-7.90483c-2.06758,-2.193 -3.354,-5.14925 -3.354,-8.428c0,-1.81317 0.37267,-3.58333 1.05708,-5.17792c1.16458,-2.73767 0.69158,-5.93758 -1.35808,-8.05892c-0.85283,-0.8815 -1.45483,-2.021 -1.78808,-3.29308c-1.37958,-2.16433 -1.83467,-5.31408 -0.91375,-7.71492c0.54108,-2.28617 2.01383,-4.7945 3.53675,-5.81933c0.40133,-0.26875 0.2365,-0.89225 -0.1935,-1.12875c-2.73408,-1.505 -4.52217,-4.31792 -4.31792,-7.72567c0.26517,-4.36808 4.47558,-7.90842 8.80425,-7.90842h12.12958c5.83367,0 9.86133,3.30025 10.18742,7.79733c0.18992,2.59433 -0.78475,4.95575 -2.44383,6.622c3.92375,2.04608 6.63275,6.13825 6.63275,10.91125v0c0,4.13158 -2.02817,7.76867 -5.117,10.00467c4.59025,1.77733 7.86183,6.235 7.86183,11.49533z" fill="url(#color-22_cPJTvqEzTYvb_gr22)" opacity="0.727"></path><path d="M133.01692,65.26683c0,4.4505 -2.35067,8.31333 -5.84083,10.48125c5.73692,1.56592 9.81833,7.21325 8.88308,13.70625c-0.8815,6.1275 2.52625,13.57725 -3.5905,13.57725l-19.22817,-2.61225c-8.27392,-0.80983 -9.92583,-4.66192 -10.9435,-10.62817c-0.51958,-3.04583 0.07883,-5.90892 1.42975,-8.2775c1.4405,-2.52625 0.65217,-5.633 -1.35808,-7.72208c-2.11775,-2.20375 -3.43642,-5.19942 -3.43642,-8.52833c0,-1.83825 0.37983,-3.63708 1.07858,-5.25675c1.15025,-2.68033 0.68442,-5.85158 -1.37958,-7.87975c-0.75967,-0.74533 -1.32942,-1.6985 -1.70567,-2.78783c-1.55158,-2.43308 -2.064,-5.98058 -1.02842,-8.67883c0.60558,-2.1715 2.11775,-4.60817 3.56542,-5.504c0.41208,-0.25442 0.2365,-0.89225 -0.1935,-1.12875c-2.71258,-1.49425 -4.50067,-4.24983 -4.3215,-7.62175c0.21858,-4.41825 4.4505,-7.998 8.82217,-7.998h12.11883c5.83367,0 9.86133,3.30383 10.18742,7.80092c0.18992,2.59433 -0.78475,4.96292 -2.44383,6.62917c3.92375,2.04608 6.63275,6.14183 6.63275,10.91842v0c0,4.13517 -2.02817,7.77583 -5.117,10.01183c4.59383,1.77375 7.869,6.235 7.869,11.49892z" fill="url(#color-23_cPJTvqEzTYvb_gr23)" opacity="0.818"></path><path d="M134.77633,65.30267c0,4.45408 -2.35067,8.3205 -5.84083,10.492c5.73692,1.5695 9.81833,7.21683 8.88308,13.717c-0.8815,6.13108 2.5155,13.56292 -3.60125,13.56292l-19.72625,-3.02792c-8.27392,-0.80983 -9.41342,-4.22833 -10.43108,-10.19817c-0.52675,-3.08883 0.08958,-5.99492 1.4835,-8.38142c1.42975,-2.46533 0.65933,-5.50758 -1.32583,-7.53933c-2.17508,-2.21092 -3.52242,-5.24958 -3.52242,-8.62508c0,-1.86333 0.39058,-3.69083 1.10008,-5.33558c1.13592,-2.62658 0.68442,-5.77633 -1.40108,-7.70058c-0.66292,-0.60917 -1.20758,-1.37958 -1.62325,-2.28258c-1.72358,-2.70542 -2.29333,-6.6435 -1.14308,-9.64633c0.67367,-2.05325 2.22525,-4.42183 3.59767,-5.19225c0.42283,-0.2365 0.2365,-0.89225 -0.1935,-1.12875c-2.69108,-1.4835 -4.46842,-4.18175 -4.32508,-7.52142c0.18275,-4.46483 4.429,-8.08758 8.84008,-8.08758h12.10808c5.83367,0 9.86133,3.30742 10.18742,7.80808c0.18992,2.59792 -0.78475,4.9665 -2.44383,6.63275c3.92375,2.04967 6.63275,6.149 6.63275,10.92558v0c0,4.13875 -2.02817,7.783 -5.117,10.019c4.58667,1.77733 7.86183,6.24217 7.86183,11.50967z" fill="url(#color-24_cPJTvqEzTYvb_gr24)" opacity="0.909"></path><path d="M136.53575,65.3385c0,4.45767 -2.35067,8.32767 -5.84083,10.49917c5.73692,1.5695 9.81833,7.224 8.88308,13.72775c-0.8815,6.13825 2.50117,13.54858 -3.61558,13.54858l-20.22433,-3.44717c-8.27392,-0.80983 -8.901,-3.79117 -9.91867,-9.76817c-0.53392,-3.13183 0.10392,-6.07733 1.53367,-8.48533c1.42617,-2.40083 0.67725,-5.38575 -1.29358,-7.353c-2.22525,-2.22167 -3.60483,-5.30333 -3.60483,-8.72542c0,-1.88842 0.39775,-3.74817 1.12517,-5.41442c1.12158,-2.56925 0.69517,-5.71542 -1.42617,-7.525c-0.56258,-0.48017 -1.08217,-1.06067 -1.54083,-1.77733c-1.89558,-2.97417 -2.52267,-7.31 -1.25775,-10.61025c0.74175,-1.935 2.33633,-4.22833 3.62633,-4.8805c0.43358,-0.21858 0.2365,-0.89583 -0.1935,-1.12875c-2.66958,-1.47275 -4.43975,-4.11367 -4.33225,-7.4175c0.14692,-4.51142 4.40392,-8.17358 8.858,-8.17358h12.09733c5.83367,0 9.86133,3.30742 10.18742,7.81525c0.18992,2.59792 -0.78475,4.97008 -2.44383,6.63992c3.92375,2.04967 6.63275,6.15258 6.63275,10.93633v0c0,4.14233 -2.02817,7.78658 -5.117,10.02617c4.59025,1.77017 7.86542,6.23858 7.86542,11.51325z" fill="url(#color-25_cPJTvqEzTYvb_gr25)"></path></g><path d="M137.62867,32.60117c-0.946,6.923 -7.32433,11.76767 -14.24733,10.82525c-2.72333,-0.37267 -5.10625,-1.60533 -6.96242,-3.36117l-10.62817,-4.76583c-0.43,0.02508 -0.86358,0.02508 -1.30433,-0.03942c-4.02408,-0.59125 -6.80117,-4.86617 -6.20275,-9.546c0.55542,-4.35375 3.83775,-7.482 7.53217,-7.42467l20.06667,0.03583c0.30817,0.01792 0.61275,-0.01075 0.9245,0.03225c6.91942,0.94242 11.76408,7.32075 10.82167,14.24375z" fill="url(#color-26_cPJTvqEzTYvb_gr26)"></path><path d="M146.66583,50.98008c-0.98183,8.09117 -8.342,13.85317 -16.43317,12.87133c-3.28592,-0.39775 -6.15258,-1.88483 -8.37425,-4.00975l-16.35433,-4.2785c-4.71208,-0.98542 -7.9765,-5.98058 -7.35658,-11.53117c0.60558,-5.41442 4.69058,-9.34175 9.33817,-9.27725l24.99733,-0.23292c0.43717,0.01433 0.86358,-0.02867 1.30433,0.02508c8.09833,0.98542 13.86033,8.342 12.8785,16.43317z" fill="url(#color-27_cPJTvqEzTYvb_gr27)"></path><path d="M150.85117,72.29017c-1.06425,8.08042 -8.48175,13.76717 -16.56217,12.70292c-0.45867,-0.06092 -24.99017,-8.44592 -24.99017,-8.44592c-4.816,-0.9245 -8.127,-6.02717 -7.43542,-11.64942c0.63425,-5.14567 4.40033,-8.944 8.76842,-9.20917c0,0 26.90008,-0.043 27.51642,0.03942c8.08042,1.06425 13.76717,8.48175 12.70292,16.56217z" fill="url(#color-28_cPJTvqEzTYvb_gr28)"></path><path d="M151.54992,91.891c-0.85642,7.09142 -7.15592,12.15825 -14.2115,11.61717c0,0 -0.94242,-0.10392 -1.13233,-0.13617l-24.25917,-4.00975c-4.65117,-1.075 -7.85108,-6.28875 -7.21683,-12.10092c0.61633,-5.65808 4.63683,-9.79325 9.23067,-9.83267l24.56017,-0.35833c0.47658,0.00717 0.94242,-0.02867 1.42617,0.02867c7.28492,0.87792 12.48075,7.5035 11.60283,14.792z" fill="url(#color-29_cPJTvqEzTYvb_gr29)"></path><ellipse cx="35.847" cy="24.86" transform="scale(3.58333,3.58333)" rx="5.925" ry="2.58" fill="url(#color-30_cPJTvqEzTYvb_gr30)" opacity="0.61"></ellipse><ellipse cx="35.268" cy="18.481" transform="scale(3.58333,3.58333)" rx="5.925" ry="2.261" fill="url(#color-31_cPJTvqEzTYvb_gr31)" opacity="0.58"></ellipse><ellipse cx="34.165" cy="12.68" transform="scale(3.58333,3.58333)" rx="5.925" ry="2.261" fill="url(#color-32_cPJTvqEzTYvb_gr32)" opacity="0.61"></ellipse><ellipse cx="32.828" cy="7.364" transform="scale(3.58333,3.58333)" rx="4.245" ry="1.62" fill="url(#color-33_cPJTvqEzTYvb_gr33)" opacity="0.58"></ellipse></g></g></svg>