<svg xmlns="http://www.w3.org/2000/svg" x="0px" y="0px"
width="48" height="48"
viewBox="0 0 172 172"
style=" fill:#000000;"><defs><radialGradient cx="62.03108" cy="77.42888" r="79.0555" gradientUnits="userSpaceOnUse" id="color-1_FYJ9HNSqf_uK_gr1"><stop offset="0" stop-color="#ffe16e"></stop><stop offset="0.629" stop-color="#ffd226"></stop><stop offset="0.75" stop-color="#fdcd23"></stop><stop offset="0.899" stop-color="#f6bd1b"></stop><stop offset="0.999" stop-color="#f0af13"></stop></radialGradient><linearGradient x1="114.49467" y1="107.71142" x2="83.35192" y2="116.85608" gradientUnits="userSpaceOnUse" id="color-2_FYJ9HNSqf_uK_gr2"><stop offset="0" stop-color="#f4ba22" stop-opacity="0.409"></stop><stop offset="1" stop-color="#fbce32"></stop></linearGradient><linearGradient x1="120.04883" y1="100.90308" x2="82.97925" y2="124.72508" gradientUnits="userSpaceOnUse" id="color-3_FYJ9HNSqf_uK_gr3"><stop offset="0" stop-color="#f2b721" stop-opacity="0.468"></stop><stop offset="1" stop-color="#f9c930"></stop></linearGradient><linearGradient x1="121.48575" y1="92.48942" x2="86.26875" y2="133.13517" gradientUnits="userSpaceOnUse" id="color-4_FYJ9HNSqf_uK_gr4"><stop offset="0" stop-color="#f0b320" stop-opacity="0.527"></stop><stop offset="1" stop-color="#f6c32d"></stop></linearGradient><linearGradient x1="118.28225" y1="85.26183" x2="93.19175" y2="140.20508" gradientUnits="userSpaceOnUse" id="color-5_FYJ9HNSqf_uK_gr5"><stop offset="0" stop-color="#eeb01f" stop-opacity="0.586"></stop><stop offset="1" stop-color="#f3be2a"></stop></linearGradient><linearGradient x1="112.50592" y1="81.98667" x2="103.55475" y2="144.25783" gradientUnits="userSpaceOnUse" id="color-6_FYJ9HNSqf_uK_gr6"><stop offset="0" stop-color="#ecac1e" stop-opacity="0.645"></stop><stop offset="1" stop-color="#f0b827"></stop></linearGradient><linearGradient x1="106.53608" y1="82.67108" x2="115.49083" y2="144.93867" gradientUnits="userSpaceOnUse" id="color-7_FYJ9HNSqf_uK_gr7"><stop offset="0" stop-color="#eaa91c" stop-opacity="0.705"></stop><stop offset="1" stop-color="#eeb325"></stop></linearGradient><linearGradient x1="100.83858" y1="84.38392" x2="127.0435" y2="141.76742" gradientUnits="userSpaceOnUse" id="color-8_FYJ9HNSqf_uK_gr8"><stop offset="0" stop-color="#e8a51b" stop-opacity="0.764"></stop><stop offset="1" stop-color="#ebad22"></stop></linearGradient><linearGradient x1="96.6425" y1="89.526" x2="135.5145" y2="134.38575" gradientUnits="userSpaceOnUse" id="color-9_FYJ9HNSqf_uK_gr9"><stop offset="0" stop-color="#e6a21a" stop-opacity="0.823"></stop><stop offset="1" stop-color="#e8a81f"></stop></linearGradient><linearGradient x1="95.83625" y1="97.29108" x2="138.99033" y2="125.02608" gradientUnits="userSpaceOnUse" id="color-10_FYJ9HNSqf_uK_gr10"><stop offset="0" stop-color="#e49e19" stop-opacity="0.882"></stop><stop offset="1" stop-color="#e5a21c"></stop></linearGradient><linearGradient x1="99.631" y1="105.64742" x2="137.10192" y2="116.65183" gradientUnits="userSpaceOnUse" id="color-11_FYJ9HNSqf_uK_gr11"><stop offset="0" stop-color="#e29b18" stop-opacity="0.941"></stop><stop offset="1" stop-color="#e39d1a"></stop></linearGradient><linearGradient x1="100.061" y1="111.93975" x2="141.341" y2="111.93975" gradientUnits="userSpaceOnUse" id="color-12_FYJ9HNSqf_uK_gr12"><stop offset="0" stop-color="#e09717"></stop><stop offset="1" stop-color="#e09717"></stop></linearGradient><linearGradient x1="24.4455" y1="111.026" x2="128.01458" y2="111.026" gradientUnits="userSpaceOnUse" id="color-13_FYJ9HNSqf_uK_gr13"><stop offset="0" stop-color="#efae13"></stop><stop offset="0.519" stop-color="#fccc24" stop-opacity="0.536"></stop><stop offset="0.999" stop-color="#fccb23"></stop></linearGradient><linearGradient x1="23.79333" y1="111.35208" x2="127.65625" y2="111.35208" gradientUnits="userSpaceOnUse" id="color-14_FYJ9HNSqf_uK_gr14"><stop offset="0" stop-color="#eeac13"></stop><stop offset="0.519" stop-color="#f9c723" stop-opacity="0.583"></stop><stop offset="0.999" stop-color="#f9c621"></stop></linearGradient><linearGradient x1="23.14475" y1="111.67817" x2="127.52367" y2="111.67817" gradientUnits="userSpaceOnUse" id="color-15_FYJ9HNSqf_uK_gr15"><stop offset="0" stop-color="#edab14"></stop><stop offset="0.519" stop-color="#f7c321" stop-opacity="0.629"></stop><stop offset="0.999" stop-color="#f7c220"></stop></linearGradient><linearGradient x1="22.49258" y1="112.00067" x2="127.41258" y2="112.00067" gradientUnits="userSpaceOnUse" id="color-16_FYJ9HNSqf_uK_gr16"><stop offset="0" stop-color="#ecaa14"></stop><stop offset="0.519" stop-color="#f5bf20" stop-opacity="0.675"></stop><stop offset="0.999" stop-color="#f5be1f"></stop></linearGradient><linearGradient x1="21.84042" y1="112.32675" x2="127.3015" y2="112.32675" gradientUnits="userSpaceOnUse" id="color-17_FYJ9HNSqf_uK_gr17"><stop offset="0" stop-color="#eba814"></stop><stop offset="0.519" stop-color="#f3ba1e" stop-opacity="0.722"></stop><stop offset="0.999" stop-color="#f3ba1d"></stop></linearGradient><linearGradient x1="21.18825" y1="112.65283" x2="127.194" y2="112.65283" gradientUnits="userSpaceOnUse" id="color-18_FYJ9HNSqf_uK_gr18"><stop offset="0" stop-color="#eaa714"></stop><stop offset="0.519" stop-color="#f0b61d" stop-opacity="0.768"></stop><stop offset="0.999" stop-color="#f0b51c"></stop></linearGradient><linearGradient x1="20.53967" y1="112.97892" x2="127.08292" y2="112.97892" gradientUnits="userSpaceOnUse" id="color-19_FYJ9HNSqf_uK_gr19"><stop offset="0" stop-color="#e9a514"></stop><stop offset="0.519" stop-color="#eeb11b" stop-opacity="0.815"></stop><stop offset="0.999" stop-color="#eeb11a"></stop></linearGradient><linearGradient x1="19.8875" y1="113.305" x2="126.97183" y2="113.305" gradientUnits="userSpaceOnUse" id="color-20_FYJ9HNSqf_uK_gr20"><stop offset="0" stop-color="#e8a414"></stop><stop offset="0.519" stop-color="#ecad1a" stop-opacity="0.861"></stop><stop offset="0.999" stop-color="#ecad19"></stop></linearGradient><linearGradient x1="19.23533" y1="113.63467" x2="126.86433" y2="113.63467" gradientUnits="userSpaceOnUse" id="color-21_FYJ9HNSqf_uK_gr21"><stop offset="0" stop-color="#e7a315"></stop><stop offset="0.519" stop-color="#eaa918" stop-opacity="0.907"></stop><stop offset="0.999" stop-color="#eaa918"></stop></linearGradient><linearGradient x1="18.58317" y1="113.96075" x2="126.75325" y2="113.96075" gradientUnits="userSpaceOnUse" id="color-22_FYJ9HNSqf_uK_gr22"><stop offset="0" stop-color="#e6a115"></stop><stop offset="0.519" stop-color="#e7a417" stop-opacity="0.954"></stop><stop offset="0.999" stop-color="#e7a416"></stop></linearGradient><radialGradient cx="117.32908" cy="148.44098" r="23.70733" gradientUnits="userSpaceOnUse" id="color-23_FYJ9HNSqf_uK_gr23"><stop offset="0" stop-color="#ffe16e"></stop><stop offset="0.629" stop-color="#ffd226"></stop><stop offset="0.75" stop-color="#fdcd23"></stop><stop offset="0.899" stop-color="#f6bd1b"></stop><stop offset="0.999" stop-color="#f0af13"></stop></radialGradient><radialGradient cx="123.07675" cy="130.5569" r="27.39458" gradientUnits="userSpaceOnUse" id="color-24_FYJ9HNSqf_uK_gr24"><stop offset="0" stop-color="#ffe16e"></stop><stop offset="0.629" stop-color="#ffd226"></stop><stop offset="0.75" stop-color="#fdcd23"></stop><stop offset="0.899" stop-color="#f6bd1b"></stop><stop offset="0.999" stop-color="#f0af13"></stop></radialGradient><radialGradient cx="126.49525" cy="111.33704" r="29.67358" gradientUnits="userSpaceOnUse" id="color-25_FYJ9HNSqf_uK_gr25"><stop offset="0" stop-color="#ffe16e"></stop><stop offset="0.629" stop-color="#ffd226"></stop><stop offset="0.75" stop-color="#fdcd23"></stop><stop offset="0.899" stop-color="#f6bd1b"></stop><stop offset="0.999" stop-color="#f0af13"></stop></radialGradient><radialGradient cx="129.5743" cy="83.58368" r="26.16845" gradientUnits="userSpaceOnUse" id="color-26_FYJ9HNSqf_uK_gr26"><stop offset="0" stop-color="#ffe16e"></stop><stop offset="0.629" stop-color="#ffd226"></stop><stop offset="0.75" stop-color="#fdcd23"></stop><stop offset="0.899" stop-color="#f6bd1b"></stop><stop offset="0.999" stop-color="#f0af13"></stop></radialGradient><radialGradient cx="65.96746" cy="126.27939" r="15.23612" gradientUnits="userSpaceOnUse" id="color-27_FYJ9HNSqf_uK_gr27"><stop offset="0.425" stop-color="#ffe16e"></stop><stop offset="1" stop-color="#ffe16e" stop-opacity="0"></stop></radialGradient><linearGradient x1="101.37537" y1="66.8879" x2="65.41618" y2="105.93932" gradientUnits="userSpaceOnUse" id="color-28_FYJ9HNSqf_uK_gr28"><stop offset="0" stop-color="#ffdb53" stop-opacity="0"></stop><stop offset="0.605" stop-color="#f6c02d"></stop><stop offset="0.999" stop-color="#f2b416" stop-opacity="0.636"></stop></linearGradient><radialGradient cx="63.10759" cy="86.39603" r="13.69906" gradientUnits="userSpaceOnUse" id="color-29_FYJ9HNSqf_uK_gr29"><stop offset="0.425" stop-color="#ffe16e"></stop><stop offset="1" stop-color="#ffe16e" stop-opacity="0"></stop></radialGradient><radialGradient cx="130.88383" cy="83.30422" r="8.30365" gradientUnits="userSpaceOnUse" id="color-30_FYJ9HNSqf_uK_gr30"><stop offset="0.425" stop-color="#ffe16e"></stop><stop offset="1" stop-color="#ffe16e" stop-opacity="0"></stop></radialGradient><radialGradient cx="127.4573" cy="107.94007" r="7.27697" gradientUnits="userSpaceOnUse" id="color-31_FYJ9HNSqf_uK_gr31"><stop offset="0.425" stop-color="#ffe16e"></stop><stop offset="1" stop-color="#ffe16e" stop-opacity="0"></stop></radialGradient><radialGradient cx="123.68585" cy="128.8665" r="7.27697" gradientUnits="userSpaceOnUse" id="color-32_FYJ9HNSqf_uK_gr32"><stop offset="0.425" stop-color="#ffe16e"></stop><stop offset="1" stop-color="#ffe16e" stop-opacity="0"></stop></radialGradient><radialGradient cx="118.92654" cy="146.46787" r="5.21426" gradientUnits="userSpaceOnUse" id="color-33_FYJ9HNSqf_uK_gr33"><stop offset="0.425" stop-color="#ffe16e"></stop><stop offset="1" stop-color="#ffe16e" stop-opacity="0"></stop></radialGradient></defs><g fill="none" fill-rule="nonzero" stroke="none" stroke-width="1" stroke-linecap="butt" stroke-linejoin="miter" stroke-miterlimit="10" stroke-dasharray="" stroke-dashoffset="0" font-family="none" font-weight="none" font-size="none" text-anchor="none" style="mix-blend-mode: normal"><path d="M0,172v-172h172v172z" fill="none"></path><g><path d="M22.44958,74.863h11.20867c6.57183,0 12.78892,-2.78783 17.29317,-7.57158c2.07117,-2.20017 4.43258,-4.23192 7.052,-6.02358c0.52317,-0.35833 1.075,-0.63425 1.60892,-0.9675l9.77892,-6.85492l12.24425,-8.61792l0.946,-1.00692c3.39342,-3.61917 5.84083,-8.03742 7.138,-12.86417l2.8165,-10.52783c0.54108,-2.064 2.39725,-3.46508 4.48275,-3.42208c13.36583,0.99258 15.60542,24.54583 5.23883,48.418c-0.129,0.29742 -0.31892,0.774 -0.15767,1.28283c0.20783,0.645 1.22192,0.97825 3.08167,1.14308c1.65192,0.14692 26.66,2.37575 32.06367,2.37575c3.07808,0 -8.59642,66.2415 -8.59642,71.54483c0,5.93758 -5.15283,11.77842 -11.09042,11.77842c-0.01075,0 -50.2455,1.15383 -59.85958,-2.67675c-3.36475,-1.34017 -6.3425,-3.68367 -8.80783,-6.58258c-4.54008,-5.33558 -11.1155,-8.514 -18.12092,-8.514h-8.3205c-2.49758,0 -4.51858,-13.63817 -4.51858,-30.45833c0,-16.82017 2.021,-30.45475 4.51858,-30.45475z" fill="url(#color-1_FYJ9HNSqf_uK_gr1)"></path><g opacity="0.87"><path d="M86.87075,83.19783c-0.45508,2.64092 -0.05733,5.14925 0.96392,7.30642c1.35808,2.87383 1.19325,6.28875 -0.99617,8.59283c-2.05683,2.16075 -3.32533,5.074 -3.3325,8.299c0,0.11467 0,0.22933 0.00358,0.344c0.043,1.71642 0.44433,3.34325 1.12875,4.816c1.2685,2.72692 0.89583,5.98058 -1.075,8.256c-0.33683,0.387 -0.645,0.79908 -0.93167,1.23267c-1.25058,1.9135 -1.97442,4.22475 -1.96367,6.68292v0c0.00358,1.032 0.13975,2.03175 0.39417,2.98133c0.18633,0.69158 0.43358,1.36525 0.73817,2.00667c0.50883,1.075 0.7525,2.18942 0.72383,3.22858c-0.0215,0.774 -0.18275,1.61608 -0.63425,2.40442c-0.24725,0.43 -0.51242,0.86358 -0.817,1.27208c-1.16817,1.56592 -1.75942,3.54033 -1.51217,5.73333c0.46225,4.07783 4.687,7.25983 8.78992,7.36017c0.01075,0 0.20067,0 0.21142,0h11.90025c5.83367,0 9.86133,-3.26442 10.18742,-7.70775c0.18992,-2.56208 -0.78475,-4.902 -2.44383,-6.54675c3.92375,-2.02458 6.63275,-6.06658 6.63275,-10.78583v0c0,-3.999 -1.94217,-7.525 -4.91992,-9.74667c-0.07883,-0.07167 -0.05375,-0.20067 0.05733,-0.24367c4.45408,-1.80958 7.60742,-6.149 7.60742,-11.25167c0,-4.28925 -2.236,-8.02667 -5.59,-10.19458c-0.09317,-0.06808 -0.06092,-0.21142 0.0645,-0.24725c5.5685,-1.66625 9.48508,-7.15233 8.56775,-13.45183c-0.8815,-6.05225 2.63017,-13.59875 -3.48658,-13.59875l-14.50533,-0.66292c-0.516,-0.03225 -1.03558,-0.03225 -1.54442,0.04658c-7.81167,1.16817 -13.23325,8.18075 -14.21867,13.87467z" fill="url(#color-2_FYJ9HNSqf_uK_gr2)" opacity="0.091"></path><path d="M88.92758,83.19783c-0.45508,2.64092 -0.05733,5.14925 0.96392,7.30642c1.35808,2.87383 1.19325,6.28875 -0.99617,8.59283c-2.04967,2.15358 -3.31817,5.05608 -3.3325,8.27033c0,0.11467 0,0.22575 0.00358,0.34042c0.03942,1.70925 0.43,3.33608 1.10367,4.80883c1.25417,2.74842 0.86358,6.00567 -1.13233,8.27392c-0.34042,0.387 -0.65575,0.79908 -0.946,1.24342c-1.26133,1.92783 -1.98158,4.2785 -1.9565,6.74742v0c0.01075,1.03917 0.15408,2.04608 0.41925,2.99567c0.1935,0.69158 0.45867,1.376 0.77758,2.02458c0.53392,1.08575 0.85642,2.18942 0.89942,3.16767c0.03225,0.71667 -0.05733,1.58025 -0.60917,2.37217c-0.28667,0.4085 -0.56617,0.83133 -0.88508,1.22908c-1.22908,1.53008 -1.85617,3.47583 -1.62325,5.70825c0.43,4.10292 4.63683,7.32075 8.76125,7.42825c0.0215,0 0.20425,0 0.22575,0h11.91817c5.83367,0 9.86133,-3.26442 10.18742,-7.70775c0.18992,-2.56208 -0.78475,-4.902 -2.44383,-6.54675c3.92375,-2.02458 6.63275,-6.06658 6.63275,-10.78583v0c0,-4.00617 -1.95292,-7.54292 -4.93783,-9.761c-0.06092,-0.06808 -0.02867,-0.18633 0.08242,-0.23292c4.4505,-1.81317 7.60025,-6.149 7.60025,-11.25167c0,-4.3 -2.25033,-8.04817 -5.61508,-10.2125c-0.07167,-0.0645 -0.03225,-0.19708 0.09317,-0.23292c5.5685,-1.66625 9.48508,-7.15233 8.56417,-13.44825c-0.8815,-6.05225 2.61942,-13.57367 -3.49733,-13.57367l-15.07867,-0.258c-0.50167,-0.02508 -1.00692,-0.0215 -1.49783,0.05375c-7.75792,1.15742 -12.69933,7.7615 -13.68117,13.44825z" fill="url(#color-3_FYJ9HNSqf_uK_gr3)" opacity="0.182"></path><path d="M90.98083,83.19783c-0.45508,2.64092 -0.05733,5.14925 0.96392,7.30642c1.35808,2.87383 1.19325,6.28875 -0.99617,8.59283c-2.04608,2.14642 -3.30742,5.04175 -3.3325,8.24167c0,0.11467 0,0.22575 0.00358,0.33683c0.03583,1.70208 0.41567,3.32892 1.07858,4.80167c1.24342,2.76992 0.83492,6.02717 -1.18967,8.29183c-0.344,0.387 -0.6665,0.80267 -0.96033,1.25058c-1.2685,1.94217 -1.98517,4.33225 -1.95292,6.81192v0c0.01433,1.04275 0.16483,2.05683 0.44433,3.01358c0.20425,0.69517 0.48375,1.38675 0.817,2.0425c0.559,1.0965 0.96033,2.18942 1.07858,3.10675c0.086,0.65933 0.07525,1.548 -0.58408,2.3435c-0.31892,0.387 -0.61992,0.7955 -0.95317,1.18608c-1.29,1.49425 -1.95292,3.41133 -1.73792,5.68317c0.39775,4.128 4.58667,7.38167 8.729,7.49992c0.03225,0 0.20783,0.00358 0.24367,0.00358h11.93967c5.83367,0 9.86133,-3.26442 10.18742,-7.70775c0.18992,-2.56208 -0.78475,-4.902 -2.44383,-6.54675c3.92375,-2.02458 6.63275,-6.06658 6.63275,-10.78583v0c0,-4.01692 -1.96008,-7.55725 -4.95933,-9.77533c-0.043,-0.0645 -0.00358,-0.17558 0.1075,-0.21858c4.44692,-1.81317 7.59667,-6.149 7.59667,-11.24808c0,-4.31075 -2.26108,-8.06608 -5.64017,-10.22683c-0.05375,-0.06092 -0.00358,-0.17917 0.11825,-0.21858c5.56492,-1.66625 9.4815,-7.15233 8.56417,-13.44825c-0.8815,-6.05225 2.60508,-13.55217 -3.51167,-13.55217l-15.64842,0.14692c-0.48733,-0.01792 -0.97467,-0.01075 -1.45125,0.06092c-7.70058,1.13233 -12.16183,7.32792 -13.14367,13.0075z" fill="url(#color-4_FYJ9HNSqf_uK_gr4)" opacity="0.273"></path><path d="M93.03767,83.19783c-0.45508,2.64092 -0.05733,5.14925 0.96392,7.30642c1.35808,2.87383 1.19325,6.28875 -0.99617,8.59283c-2.03892,2.14283 -3.30025,5.02383 -3.3325,8.213c0,0.11108 0,0.22575 0,0.33683c0.03225,1.69492 0.40492,3.31817 1.0535,4.7945c1.22908,2.79142 0.80267,6.05225 -1.247,8.30975c-0.35117,0.387 -0.67725,0.80625 -0.97467,1.26133c-1.27567,1.9565 -1.99233,4.386 -1.94575,6.87642v0c0.0215,1.04992 0.17917,2.07117 0.46942,3.02792c0.21142,0.69875 0.50883,1.40108 0.85642,2.064c0.58408,1.10725 1.06067,2.18942 1.25417,3.04583c0.13617,0.602 0.20783,1.51217 -0.559,2.31483c-0.35117,0.3655 -0.67367,0.76325 -1.02483,1.14308c-1.35092,1.462 -2.04967,3.34325 -1.849,5.66167c0.3655,4.15308 4.53292,7.439 8.70033,7.568c0.043,0 0.215,0.00358 0.258,0.00358h11.95758c5.83367,0 9.86133,-3.26442 10.18742,-7.70775c0.18992,-2.56208 -0.78475,-4.902 -2.44383,-6.54675c3.92375,-2.02458 6.63275,-6.06658 6.63275,-10.78583v0c0,-4.02408 -1.96725,-7.57158 -4.97725,-9.78967c-0.02508,-0.06092 0.0215,-0.16125 0.129,-0.20783c4.44692,-1.81317 7.59308,-6.149 7.59308,-11.24808c0,-4.3215 -2.27183,-8.084 -5.66525,-10.24475c-0.03225,-0.05733 0.0215,-0.16483 0.14692,-0.20425c5.56492,-1.66625 9.4815,-7.15233 8.56417,-13.44825c-0.8815,-6.05225 2.59075,-13.52708 -3.526,-13.52708l-16.22175,0.55542c-0.473,-0.01433 -0.946,0 -1.40467,0.06808c-7.63967,1.10367 -11.61717,6.89433 -12.599,12.56675z" fill="url(#color-5_FYJ9HNSqf_uK_gr5)" opacity="0.364"></path><path d="M95.09092,83.19783c-0.45508,2.64092 -0.05733,5.14925 0.96392,7.30642c1.35808,2.87383 1.19325,6.28875 -0.99617,8.59283c-2.03175,2.13567 -3.29308,5.00592 -3.32892,8.18075c0,0.11108 0,0.22217 0,0.33325c0.02508,1.68775 0.39058,3.311 1.02842,4.78733c1.21475,2.8165 0.774,6.07375 -1.30433,8.32767c-0.35475,0.38342 -0.68442,0.80625 -0.989,1.27208c-1.28283,1.97083 -1.9995,4.44333 -1.93858,6.94092v0c0.02508,1.05708 0.18992,2.0855 0.4945,3.04583c0.22217,0.70233 0.53033,1.41183 0.89583,2.08192c0.60917,1.118 1.161,2.18583 1.42975,2.98492c0.18275,0.54108 0.34758,1.4835 -0.53392,2.28258c-0.37983,0.34758 -0.72742,0.731 -1.09292,1.0965c-1.41183,1.42975 -2.14642,3.27875 -1.96367,5.63658c0.33325,4.17817 4.48275,7.49992 8.67167,7.63608c0.05733,0.00358 0.21858,0.00358 0.27233,0.00358h11.97908c5.83367,0 9.86133,-3.26442 10.18742,-7.70775c0.18992,-2.56208 -0.78475,-4.902 -2.44383,-6.54675c3.92375,-2.02458 6.63275,-6.06658 6.63275,-10.78583v0c0,-4.03483 -1.978,-7.5895 -4.99875,-9.804c-0.00717,-0.05733 0.04658,-0.1505 0.15408,-0.1935c4.44333,-1.81675 7.5895,-6.149 7.5895,-11.2445c0,-4.33225 -2.28258,-8.10192 -5.69033,-10.25908c-0.01075,-0.05375 0.05017,-0.1505 0.172,-0.18633c5.56492,-1.66625 9.47792,-7.15233 8.56058,-13.44825c-0.8815,-6.05225 2.58,-13.50558 -3.53675,-13.50558l-16.79508,0.96033c-0.45867,-0.00717 -0.91733,0.01075 -1.35808,0.07525c-7.57875,1.08933 -11.07967,6.46792 -12.0615,12.13675z" fill="url(#color-6_FYJ9HNSqf_uK_gr6)" opacity="0.455"></path><path d="M97.14775,83.19783c-0.45508,2.64092 -0.05733,5.14925 0.96392,7.30642c1.35808,2.87383 1.19325,6.28875 -0.99617,8.59283c-2.02817,2.1285 -3.28592,4.988 -3.32892,8.15208c0,0.11108 0,0.22217 0,0.33325c0.0215,1.68058 0.37625,3.30383 1.00333,4.78017c1.20042,2.838 0.74533,6.09883 -1.36167,8.34558c-0.36192,0.38342 -0.69517,0.80983 -1.00333,1.27925c-1.29,1.98517 -2.00308,4.49708 -1.93142,7.00542v0c0.03225,1.06425 0.20425,2.09625 0.51958,3.06017c0.23292,0.70233 0.55542,1.42258 0.93525,2.09983c0.63425,1.12875 1.25417,2.18225 1.60892,2.924c0.22933,0.48375 0.48733,1.45842 -0.50883,2.25392c-0.4085,0.32967 -0.78117,0.69875 -1.161,1.0535c-1.47633,1.39392 -2.24317,3.21425 -2.07475,5.6115c0.301,4.20325 4.43258,7.56083 8.63942,7.70775c0.06808,0.00358 0.22217,0.00358 0.29025,0.00358h11.997c5.83367,0 9.86133,-3.26442 10.18742,-7.70775c0.18992,-2.56208 -0.78475,-4.902 -2.44383,-6.54675c3.92375,-2.02458 6.63275,-6.06658 6.63275,-10.78583v0c0,-4.042 -1.98517,-7.60383 -5.01667,-9.81833c0.01075,-0.05375 0.07167,-0.13975 0.17917,-0.18275c4.43975,-1.81675 7.58592,-6.149 7.58592,-11.2445c0,-4.343 -2.29333,-8.11983 -5.71542,-10.277c0.01075,-0.05017 0.07883,-0.13617 0.19708,-0.172c5.56492,-1.66625 9.47792,-7.15233 8.56058,-13.44825c-0.8815,-6.05225 2.56567,-13.4805 -3.55108,-13.4805l-17.36483,1.36883c-0.44433,0 -0.88508,0.0215 -1.3115,0.08242c-7.53217,1.07142 -10.55292,6.0415 -11.53117,11.70317z" fill="url(#color-7_FYJ9HNSqf_uK_gr7)" opacity="0.545"></path><path d="M99.20458,83.19783c-0.45508,2.64092 -0.05733,5.14925 0.96392,7.30642c1.35808,2.87383 1.19325,6.28875 -0.99617,8.59283c-2.021,2.12133 -3.27875,4.97008 -3.32892,8.12342c0,0.11108 -0.00358,0.21858 0,0.32967c0.01792,1.66983 0.36192,3.29308 0.97825,4.773c1.18608,2.8595 0.71308,6.12392 -1.419,8.36708c-0.3655,0.38342 -0.70592,0.81342 -1.01767,1.29c-1.29717,1.9995 -2.01025,4.55083 -1.92783,7.06633v0c0.03583,1.07142 0.215,2.11058 0.54467,3.0745c0.24008,0.70592 0.5805,1.43692 0.97467,2.11775c0.65933,1.1395 1.34733,2.18225 1.7845,2.86308c0.27233,0.42642 0.63067,1.43333 -0.48017,2.22525c-0.43717,0.31175 -0.8385,0.66292 -1.22908,1.0105c-1.53725,1.35808 -2.33992,3.14617 -2.18942,5.58642c0.26875,4.22833 4.37883,7.62175 8.61075,7.77583c0.07883,0.00358 0.22575,0.00358 0.30458,0.00358h12.0185c5.83367,0 9.86133,-3.26442 10.18742,-7.70775c0.18992,-2.56208 -0.78475,-4.902 -2.44383,-6.54675c3.92375,-2.02458 6.63275,-6.06658 6.63275,-10.78583v0c0,-4.04917 -1.99592,-7.61817 -5.03817,-9.83267c0.02867,-0.05017 0.09675,-0.12542 0.20425,-0.16842c4.43975,-1.81675 7.57875,-6.149 7.57875,-11.24092c0,-4.35375 -2.30408,-8.13775 -5.7405,-10.29133c0.02867,-0.04658 0.1075,-0.12183 0.22575,-0.15767c5.56492,-1.66983 9.47792,-7.15233 8.557,-13.44825c-0.8815,-6.05225 2.55133,-13.459 -3.56542,-13.459l-17.93817,1.77375c-0.43,0.00717 -0.85642,0.03225 -1.26492,0.09317c-7.47125,1.04633 -10.01183,5.6115 -10.9865,11.266z" fill="url(#color-8_FYJ9HNSqf_uK_gr8)" opacity="0.636"></path><path d="M101.25783,83.19783c-0.45508,2.64092 -0.05733,5.14925 0.96392,7.30642c1.35808,2.87383 1.19325,6.28875 -0.99617,8.59283c-2.01383,2.11417 -3.27158,4.95217 -3.32892,8.09475c-0.00358,0.1075 -0.00358,0.21858 0,0.32967c0.01433,1.66267 0.34758,3.28592 0.95317,4.76583c1.17175,2.881 0.68442,6.14542 -1.47633,8.385c-0.36908,0.38342 -0.71667,0.81342 -1.032,1.30075c-1.30433,2.01383 -2.01742,4.60458 -1.92067,7.13083v0c0.03942,1.075 0.22933,2.12492 0.56975,3.09242c0.25083,0.7095 0.60558,1.44767 1.01408,2.13925c0.68442,1.15025 1.43333,2.18225 1.96008,2.80217c0.31533,0.36908 0.774,1.41542 -0.45508,2.19658c-0.46583,0.29742 -0.89225,0.63067 -1.29717,0.9675c-1.60175,1.31867 -2.43667,3.08167 -2.3005,5.56492c0.2365,4.25342 4.32867,7.68267 8.5785,7.8475c0.08958,0.00358 0.23292,0.00717 0.3225,0.00717h12.03642c5.83367,0 9.86133,-3.26442 10.18742,-7.70775c0.18992,-2.56208 -0.78475,-4.902 -2.44383,-6.54675c3.92375,-2.02458 6.63275,-6.06658 6.63275,-10.78583v0c0,-4.05992 -2.00308,-7.63608 -5.05608,-9.847c0.04658,-0.04658 0.12183,-0.11467 0.22575,-0.15767c4.43617,-1.81675 7.57517,-6.149 7.57517,-11.24092c0,-4.3645 -2.31483,-8.15925 -5.76558,-10.30567c0.05017,-0.043 0.13617,-0.1075 0.25083,-0.13975c5.56133,-1.66983 9.47433,-7.15233 8.557,-13.44825c-0.8815,-6.05225 2.54058,-13.43392 -3.57617,-13.43392l-18.50792,2.17867c-0.41567,0.01433 -0.82417,0.043 -1.21833,0.10033c-7.4175,1.00692 -9.47433,5.16358 -10.45258,10.81092z" fill="url(#color-9_FYJ9HNSqf_uK_gr9)" opacity="0.727"></path><path d="M103.31467,83.19783c-0.45508,2.64092 -0.05733,5.14925 0.96392,7.30642c1.35808,2.87383 1.19325,6.28875 -0.99617,8.59283c-2.00667,2.107 -3.26083,4.93425 -3.32892,8.06608c-0.00358,0.1075 -0.00358,0.21858 -0.00358,0.32608c0.00717,1.6555 0.33683,3.27875 0.92808,4.75867c1.161,2.9025 0.65217,6.1705 -1.53367,8.40292c-0.37625,0.38342 -0.72742,0.817 -1.04633,1.30792c-1.3115,2.02817 -2.021,4.65833 -1.9135,7.19533v0c0.04658,1.08217 0.24008,2.13567 0.59483,3.10675c0.26158,0.71308 0.62708,1.45842 1.05708,2.15717c0.7095,1.161 1.51575,2.18942 2.13925,2.74125c0.35475,0.31533 0.91733,1.3975 -0.43,2.16433c-0.4945,0.28308 -0.946,0.59842 -1.36525,0.92092c-1.66625,1.28642 -2.52983,3.01358 -2.41517,5.53983c0.20783,4.2785 4.27492,7.74358 8.54983,7.91558c0.10033,0.00358 0.2365,0.00717 0.33683,0.00717h12.05792c5.83367,0 9.86133,-3.26442 10.18742,-7.70775c0.18992,-2.56208 -0.78475,-4.902 -2.44383,-6.54675c3.92375,-2.02458 6.63275,-6.06658 6.63275,-10.78583v0c0,-4.06708 -2.01025,-7.65042 -5.07758,-9.86133c0.0645,-0.043 0.1505,-0.10033 0.25083,-0.14333c4.43258,-1.82033 7.57158,-6.149 7.57158,-11.23733c0,-4.37525 -2.32558,-8.17717 -5.79067,-10.32358c0.07167,-0.03942 0.16483,-0.08958 0.2795,-0.12542c5.56133,-1.66983 9.47433,-7.15233 8.557,-13.44825c-0.8815,-6.05225 2.52625,-13.41242 -3.5905,-13.41242l-19.08125,2.58717c-0.40133,0.0215 -0.7955,0.05375 -1.17175,0.1075c-7.36733,0.99975 -8.944,4.74792 -9.91867,10.38808z" fill="url(#color-10_FYJ9HNSqf_uK_gr10)" opacity="0.818"></path><path d="M105.3715,83.19783c-0.45508,2.64092 -0.05733,5.14925 0.96392,7.30642c1.35808,2.87383 1.19325,6.28875 -0.99617,8.59283c-2.00308,2.10342 -3.25367,4.91633 -3.32892,8.03742c-0.00358,0.1075 -0.00358,0.215 -0.00358,0.3225c0.00358,1.64833 0.3225,3.268 0.903,4.7515c1.14667,2.924 0.6235,6.19558 -1.591,8.42083c-0.37983,0.38342 -0.73458,0.817 -1.05708,1.31867c-1.31867,2.03892 -2.02817,4.71208 -1.90992,7.25983v0c0.05017,1.08933 0.25442,2.15 0.61992,3.12108c0.26875,0.71308 0.65217,1.47275 1.0965,2.17508c0.73458,1.17175 1.60175,2.20017 2.31483,2.68033c0.39417,0.26517 1.06425,1.38317 -0.40492,2.13567c-0.52317,0.26875 -0.99975,0.56258 -1.43333,0.87792c-1.72717,1.25058 -2.62658,2.94908 -2.52625,5.51475c0.17558,4.30358 4.22475,7.81167 8.52117,7.98367c0.11108,0.00358 0.24008,0.00717 0.35117,0.00717h12.07583c5.83367,0 9.86133,-3.26442 10.18742,-7.70775c0.18992,-2.56208 -0.78475,-4.902 -2.44383,-6.54675c3.92375,-2.02458 6.63275,-6.06658 6.63275,-10.78583v0c0,-4.07783 -2.021,-7.66475 -5.0955,-9.87567c0.08242,-0.043 0.17558,-0.08958 0.27592,-0.13258c4.43258,-1.82033 7.568,-6.149 7.568,-11.23733c0,-4.386 -2.33992,-8.19508 -5.81575,-10.33792c0.08958,-0.03225 0.1935,-0.07525 0.30458,-0.11108c5.56133,-1.66983 9.47075,-7.15233 8.55342,-13.44467c-0.8815,-6.05225 2.5155,-13.38733 -3.60125,-13.38733l-19.65458,2.99208c-0.39058,0.02867 -0.76325,0.0645 -1.12517,0.11467c-7.31,0.98183 -8.41008,4.3215 -9.38117,9.9545z" fill="url(#color-11_FYJ9HNSqf_uK_gr11)" opacity="0.909"></path><path d="M138.14467,107.42833c0,-4.39675 -2.35067,-8.213 -5.84083,-10.35583c5.73692,-1.548 9.81833,-7.12367 8.88308,-13.54142c-0.8815,-6.05225 2.50117,-13.36583 -3.61558,-13.36583l-20.22433,3.397c-8.27392,0.79908 -8.901,3.741 -9.91867,9.63558c-0.45508,2.64092 -0.05733,5.14925 0.96392,7.30642c1.35808,2.87383 1.19325,6.28875 -0.99617,8.59283c-2.064,2.16792 -3.3325,5.09192 -3.3325,8.32767c0,1.64117 0.30817,3.26083 0.87792,4.74792c1.13233,2.9455 0.59483,6.21708 -1.64833,8.43875c-0.387,0.38342 -0.74533,0.82058 -1.07142,1.32942c-1.89558,2.93475 -2.52267,7.20967 -1.25775,10.46333c0.74175,1.90992 2.33633,4.171 3.62633,4.81242c0.43717,0.215 1.20758,1.37242 -0.37983,2.107c-2.75917,1.27208 -4.24983,3.06375 -4.14233,6.32458c0.14692,4.4505 4.40392,8.0625 8.858,8.0625h12.09733c5.83367,0 9.86133,-3.26442 10.18742,-7.70775c0.18992,-2.56208 -0.78475,-4.902 -2.44383,-6.54675c3.92375,-2.02458 6.63275,-6.06658 6.63275,-10.78583v0c0,-4.085 -2.02817,-7.68267 -5.117,-9.89c4.58667,-1.74508 7.86183,-6.15258 7.86183,-11.352z" fill="url(#color-12_FYJ9HNSqf_uK_gr12)"></path></g><g opacity="0.24"><path d="M28.96408,129.26158h8.31692c7.009,0 13.58083,3.17483 18.12092,8.514c2.46533,2.89892 5.44308,5.24242 8.80783,6.58258c4.41825,1.75942 17.42217,2.46533 30.17167,2.71617c1.25058,0.02508 2.50117,0.043 3.741,0.06092c8.02667,0.10392 15.54808,0.04658 20.05592,-0.00717c3.84492,-0.043 6.32458,-0.18633 6.50017,-0.33325c1.07142,-0.07167 2.09267,-0.37983 3.06375,-0.7955c0.301,-1.07142 0.31175,-2.23242 0.22217,-3.483c-0.05017,-0.71667 0.01792,-2.68392 0.05375,-5.47892c-4.65833,0.05733 -11.48458,0.10033 -18.75875,0.01433c-3.49375,-0.03942 -7.09142,-0.11108 -10.60667,-0.22217c-8.45667,-0.27233 -16.4045,-0.79192 -21.16317,-1.73792c-1.42258,-0.28667 -2.6015,-0.61633 -3.483,-0.989c-2.06042,-0.87075 -3.97392,-2.11058 -5.70825,-3.62275c-1.08933,-0.95317 -2.12492,-1.99233 -3.09958,-3.096c-3.36117,-3.80908 -7.77583,-6.46075 -12.63125,-7.568c-1.677,-0.42642 -3.96675,-0.64858 -5.73692,-0.64858h-2.18583c-0.08958,0 -5.75125,-0.18992 -5.81575,-0.516c-1.99233,-0.50167 -3.65142,-9.90075 -4.13158,-22.51767c-0.09675,-2.6445 -0.14333,-5.40367 -0.13258,-8.23092c0.0215,-4.6225 0.21142,-8.9225 0.50525,-12.77817c-0.77042,-0.00717 -1.548,-0.043 -2.32917,-0.12542c0.01075,-0.05017 -1.31867,-0.09675 -1.30433,-0.13975h-1.42258c-0.06808,0 -3.827,0.11108 -3.88075,0.31175c-1.01767,5.51117 -1.67342,13.94992 -1.68417,23.43142c0,0.70233 0.00358,1.3975 0.00717,2.08908c0.14333,15.94225 2.107,28.56992 4.50783,28.56992z" fill="url(#color-13_FYJ9HNSqf_uK_gr13)" opacity="0.091"></path><path d="M28.31192,129.91375h8.31692c7.009,0 13.58083,3.17483 18.12092,8.514c2.46533,2.89892 5.44308,5.24242 8.80783,6.58258c4.45767,1.77375 17.65508,2.47608 30.5085,2.72333c1.2685,0.02508 2.53342,0.043 3.784,0.06092c8.428,0.10392 16.20742,0.02508 20.26375,-0.0215c3.70875,-0.03942 6.1705,-0.26875 6.5145,-0.559c1.05708,-0.14333 2.05683,-0.516 2.99925,-0.99258c0.10392,-0.85642 -0.16842,-1.79525 -0.35117,-2.95625c-0.10033,-0.63783 -0.22933,-2.41158 -0.59125,-4.91992c-4.69058,0.05733 -11.56342,0.10033 -18.877,0.01433c-3.52242,-0.043 -7.14517,-0.11467 -10.67475,-0.22933c-8.59642,-0.28308 -16.63742,-0.82058 -21.27067,-1.81317c-1.3975,-0.30458 -2.56925,-0.66292 -3.47225,-1.06425c-2.05325,-0.91733 -3.95958,-2.193 -5.67958,-3.74458c-1.08217,-0.97825 -2.1285,-2.02458 -3.12825,-3.11392c-3.44,-3.7625 -7.9335,-6.33892 -12.84625,-7.33508c-1.50858,-0.38342 -4.17817,-0.58408 -5.76917,-0.58408h-2.193c-0.17917,0 -5.36425,-0.37983 -5.49683,-1.02842c-1.90633,-1.00333 -3.47583,-10.37017 -3.90942,-22.747c-0.086,-2.6875 -0.12183,-5.46817 -0.10033,-8.29183c0.043,-4.687 0.258,-9.02283 0.58408,-12.857c-0.67725,-0.11467 -1.3545,-0.24367 -2.0425,-0.40492c0.0215,-0.10033 -1.161,-0.18992 -1.13592,-0.27592h-1.419c-0.13617,0 -3.58692,0.22575 -3.70158,0.61992c-1.0535,5.43592 -1.73792,13.9535 -1.75942,23.57117c0,0.70233 0,1.40467 0.00717,2.10342c0.129,16.02108 2.09983,28.74908 4.51142,28.74908z" fill="url(#color-14_FYJ9HNSqf_uK_gr14)" opacity="0.182"></path><path d="M27.65975,130.56592h8.31692c7.009,0 13.58083,3.17483 18.12092,8.514c2.46533,2.89892 5.44308,5.24242 8.80783,6.58258c4.49708,1.79167 17.89158,2.49042 30.84533,2.72692c1.28283,0.02508 2.56208,0.043 3.83058,0.05733c8.82575,0.10033 16.86675,0.00717 20.47158,-0.03583c3.569,-0.03225 6.02,-0.35117 6.53242,-0.78833c1.04275,-0.215 2.021,-0.64858 2.93475,-1.18967c-0.08958,-0.63783 -0.38342,-1.43692 -0.9245,-2.4295c0,-0.57333 -0.47658,-2.13567 -1.23625,-4.3645c-4.71925,0.05733 -11.63867,0.10033 -18.99525,0.01075c-3.5475,-0.043 -7.19533,-0.11825 -10.74642,-0.23292c-8.73617,-0.29025 -16.87033,-0.84208 -21.37458,-1.88842c-1.37242,-0.31892 -2.54058,-0.70592 -3.4615,-1.1395c-2.04608,-0.96033 -3.94525,-2.27542 -5.6545,-3.86642c-1.075,-1.00333 -2.13208,-2.05325 -3.15333,-3.13183c-3.52242,-3.71233 -8.08758,-6.21708 -13.05767,-7.10217c-1.34017,-0.34042 -4.386,-0.51958 -5.80142,-0.51958h-2.20017c-0.26875,0 -4.97725,-0.57333 -5.17792,-1.54442c-1.82392,-1.505 -3.30025,-10.836 -3.68367,-22.97275c-0.07883,-2.7305 -0.10033,-5.53267 -0.06808,-8.35275c0.0645,-4.7515 0.30458,-9.12675 0.65933,-12.93583c-0.5805,-0.21858 -1.16458,-0.44433 -1.75225,-0.68442c0.03225,-0.1505 -1.00333,-0.28667 -0.97108,-0.41567h-1.42258c-0.20425,0 -3.35042,0.33683 -3.52242,0.93167c-1.08575,5.36067 -1.80242,13.96067 -1.83467,23.71092c-0.00358,0.70592 0,1.41183 0.00358,2.11417c0.11825,16.11425 2.09625,28.94617 4.515,28.94617z" fill="url(#color-15_FYJ9HNSqf_uK_gr15)" opacity="0.273"></path><path d="M27.01117,131.21808h8.31692c7.009,0 13.58083,3.17483 18.12092,8.514c2.46533,2.89892 5.44308,5.24242 8.80783,6.58258c4.5365,1.806 18.1245,2.50117 31.17858,2.73408c1.30075,0.0215 2.59433,0.043 3.87358,0.05733c9.22708,0.10033 17.5225,-0.01075 20.67942,-0.04658c3.42925,-0.02867 5.86592,-0.43358 6.55033,-1.01408c1.02842,-0.28667 1.98875,-0.78475 2.87025,-1.38675c-0.28308,-0.42283 -0.774,-1.032 -1.49783,-1.90275c0,-0.50167 -0.72383,-1.86333 -1.87767,-3.8055c-4.74792,0.05733 -11.7175,0.10033 -19.1135,0.01075c-3.57258,-0.043 -7.24908,-0.11825 -10.81808,-0.24008c-8.8795,-0.301 -17.10325,-0.87433 -21.4785,-1.96367c-1.34733,-0.33683 -2.50833,-0.7525 -3.45075,-1.21833c-2.03892,-1.00692 -3.93092,-2.36142 -5.62583,-3.98825c-1.07142,-1.02842 -2.13567,-2.0855 -3.182,-3.14975c-3.60125,-3.66575 -8.24167,-6.09525 -13.26908,-6.86925c-1.17533,-0.29742 -4.59742,-0.45508 -5.83725,-0.45508h-2.20017c-0.35475,0 -4.59025,-0.76325 -4.859,-2.06042c-1.73792,-2.01025 -3.12467,-11.30183 -3.4615,-23.20208c-0.06808,-2.7735 -0.07883,-5.59717 -0.03225,-8.41725c0.086,-4.816 0.35117,-9.22708 0.73458,-13.01825c-0.48733,-0.32608 -0.97467,-0.645 -1.46558,-0.96392c0.043,-0.19708 -0.84925,-0.38342 -0.80267,-0.55183h-1.43333c-0.27233,0 -3.11392,0.44792 -3.34325,1.23983c-1.118,5.28542 -1.86692,13.96783 -1.90633,23.85067c-0.00358,0.7095 -0.00358,1.419 0.00358,2.12492c0.10392,16.20742 2.0855,29.13967 4.51858,29.13967z" fill="url(#color-16_FYJ9HNSqf_uK_gr16)" opacity="0.364"></path><path d="M26.359,131.87025h8.31692c7.009,0 13.58083,3.17483 18.12092,8.514c2.46533,2.89892 5.44308,5.24242 8.80783,6.58258c4.57592,1.82033 18.361,2.51192 31.51542,2.73767c1.31508,0.0215 2.62658,0.03942 3.92017,0.05375c9.62483,0.09675 18.18183,-0.02867 20.88725,-0.06092c3.29308,-0.02508 5.71183,-0.516 6.56467,-1.24342c1.01408,-0.35833 1.95292,-0.91733 2.80575,-1.58025c-0.48017,-0.20783 -1.16817,-0.63067 -2.06758,-1.376c0,-0.43 -0.97108,-1.58742 -2.52267,-3.2465c-4.78017,0.05733 -11.79633,0.10033 -19.23533,0.00717c-3.60125,-0.04658 -7.29925,-0.12183 -10.88975,-0.24367c-9.01925,-0.31175 -17.33617,-0.903 -21.586,-2.03892c-1.32225,-0.35475 -2.47967,-0.7955 -3.44,-1.29358c-2.03175,-1.04992 -3.91658,-2.44383 -5.59717,-4.1065c-1.06425,-1.0535 -2.13567,-2.11417 -3.20708,-3.16767c-3.68367,-3.61917 -8.39933,-5.97342 -13.48408,-6.63633c-1.00692,-0.25442 -4.80883,-0.39058 -5.8695,-0.39058h-2.21092c-0.44433,0 -4.20325,-0.95317 -4.54008,-2.57283c-1.6555,-2.51192 -2.97058,-11.77125 -3.23575,-23.42783c-0.0645,-2.8165 -0.05733,-5.66167 0,-8.47817c0.1075,-4.88408 0.39775,-9.331 0.81342,-13.09708c-0.39417,-0.43358 -0.78475,-0.84567 -1.17533,-1.247c0.05375,-0.24725 -0.69158,-0.48017 -0.63425,-0.69158h-1.42975c-0.34042,0 -2.87742,0.559 -3.1605,1.55158c-1.15383,5.20658 -1.92783,13.97142 -1.98158,23.99042c-0.00358,0.71308 -0.00358,1.42617 0,2.13925c0.086,16.28983 2.07475,29.32242 4.515,29.32242z" fill="url(#color-17_FYJ9HNSqf_uK_gr17)" opacity="0.455"></path><path d="M25.70683,132.51883h8.31692c7.009,0 13.58083,3.17483 18.12092,8.514c2.46533,2.89892 5.44308,5.24242 8.80783,6.58258c4.61175,1.83825 18.5975,2.52625 31.85225,2.74483c1.333,0.0215 2.65883,0.03942 3.96317,0.05375c10.02258,0.09675 18.84117,-0.05375 21.09867,-0.07525c3.15333,-0.02867 5.4395,-0.75967 6.58258,-1.46917c0.9245,-0.57333 1.92067,-1.0535 2.74125,-1.77733c-0.67367,0.01075 -1.55875,-0.22933 -2.64092,-0.84925c0,-0.35833 -1.21833,-1.31508 -3.16408,-2.6875c-4.80883,0.05733 -11.87517,0.10033 -19.35358,0.00717c-3.62633,-0.04658 -7.34942,-0.12542 -10.96142,-0.25083c-9.159,-0.3225 -17.5655,-0.93525 -21.68992,-2.11775c-1.29717,-0.37267 -2.44742,-0.84208 -3.42567,-1.36883c-2.02817,-1.09292 -3.90225,-2.52625 -5.57208,-4.22833c-1.05708,-1.07858 -2.13925,-2.14642 -3.23217,-3.18558c-3.7625,-3.57258 -8.55342,-5.85158 -13.6955,-6.407c-0.8385,-0.21142 -5.02025,-0.3225 -5.90175,-0.3225h-2.2145c-0.53392,0 -3.81625,-1.14308 -4.22117,-3.08883c-1.5695,-3.01358 -2.795,-12.23708 -3.01358,-23.65717c-0.05375,-2.8595 -0.03942,-5.72617 0.03225,-8.54267c0.129,-4.94858 0.44792,-9.43133 0.88867,-13.17592c-0.29742,-0.5375 -0.59483,-1.04633 -0.88867,-1.5265c0.06808,-0.29742 -0.53392,-0.57333 -0.46583,-0.82775h-1.4405c-0.4085,0 -2.64092,0.67367 -2.98133,1.86333c-1.18608,5.13133 -1.99233,13.97858 -2.05683,24.13375c-0.00358,0.71667 -0.00358,1.43333 0,2.15c0.07167,16.37583 2.06758,29.50875 4.515,29.50875z" fill="url(#color-18_FYJ9HNSqf_uK_gr18)" opacity="0.545"></path><path d="M25.05467,133.171h8.31692c7.009,0 13.58083,3.17483 18.12092,8.514c2.46533,2.89892 5.44308,5.24242 8.80783,6.58258c4.65117,1.85258 18.83042,2.537 32.18908,2.752c1.34733,0.0215 2.6875,0.03942 4.00975,0.05017c10.42392,0.09675 19.5005,-0.07167 21.3065,-0.08958c3.01717,-0.02508 5.29258,-0.82417 6.6005,-1.6985c0.92092,-0.61633 1.88483,-1.18967 2.67675,-1.97442c-0.86717,0.22575 -1.95292,0.17558 -3.21425,-0.3225c0,-0.28667 -1.46558,-1.03917 -3.80908,-2.1285c-4.8375,0.05733 -11.954,0.10033 -19.47183,0.00358c-3.655,-0.04658 -7.40317,-0.129 -11.0295,-0.258c-9.29875,-0.32967 -17.79842,-0.9675 -21.79742,-2.193c-1.27208,-0.39058 -2.41875,-0.88508 -3.41492,-1.44408c-2.021,-1.13233 -3.88792,-2.61225 -5.54342,-4.35017c-1.04992,-1.10367 -2.14283,-2.17508 -3.26083,-3.19992c-3.84133,-3.526 -8.7075,-5.72975 -13.90692,-6.17408c-0.67008,-0.16842 -5.22808,-0.258 -5.93758,-0.258h-2.22167c-0.6235,0 -3.43283,-1.33658 -3.90225,-3.60483c-1.4835,-3.51525 -2.59792,-12.70292 -2.78783,-23.8865c-0.03942,-2.90608 -0.01792,-5.79067 0.0645,-8.60358c0.1505,-5.01308 0.4945,-9.53167 0.96392,-13.25475c-0.20425,-0.645 -0.40492,-1.247 -0.59842,-1.806c0.07883,-0.34758 -0.37983,-0.67008 -0.29742,-0.9675h-1.44408c-0.47658,0 -2.40442,0.78475 -2.80217,2.1715c-1.22192,5.05608 -2.05683,13.98575 -2.1285,24.2735c-0.00358,0.72025 -0.00717,1.4405 -0.00358,2.16433c0.05733,16.469 2.05683,29.70225 4.515,29.70225z" fill="url(#color-19_FYJ9HNSqf_uK_gr19)" opacity="0.636"></path><path d="M24.4025,133.82317h8.31692c7.009,0 13.58083,3.17483 18.12092,8.514c2.46533,2.89892 5.44308,5.24242 8.80783,6.58258c4.69058,1.86692 19.06692,2.54775 32.52233,2.75558c1.36525,0.0215 2.71975,0.03583 4.05275,0.05017c10.82167,0.09317 20.15983,-0.08958 21.51433,-0.10033c2.87742,-0.0215 5.15642,-0.8815 6.61483,-1.92425c0.91733,-0.65575 1.849,-1.32225 2.61225,-2.1715c-1.06067,0.44075 -2.3435,0.57692 -3.78758,0.20425c0,-0.215 -1.71283,-0.76683 -4.4505,-1.57308c-4.86975,0.05733 -12.03283,0.10033 -19.59008,0c-3.68008,-0.05017 -7.45333,-0.13258 -11.10117,-0.26158c-9.44208,-0.34042 -18.03133,-0.99975 -21.90133,-2.26825c-1.247,-0.4085 -2.3865,-0.92808 -3.40417,-1.51933c-2.01742,-1.17533 -3.87358,-2.69467 -5.51833,-4.472c-1.04275,-1.12875 -2.14283,-2.20733 -3.28592,-3.21783c-3.92375,-3.47942 -8.86517,-5.60792 -14.11833,-5.94117c-0.50167,-0.129 -5.4395,-0.1935 -5.96983,-0.1935h-2.22167c-0.71308,0 -3.04583,-1.5265 -3.58333,-4.11725c-1.40108,-4.01692 -2.42233,-13.17233 -2.56567,-24.11225c-0.02867,-2.94908 0.00358,-5.85875 0.09675,-8.6645c0.172,-5.07758 0.54108,-9.63558 1.03917,-13.33717c-0.11108,-0.74892 -0.215,-1.44767 -0.31175,-2.0855c0.08958,-0.39775 -0.22217,-0.76683 -0.129,-1.10367h-1.44408c-0.54467,0 -2.16792,0.89583 -2.623,2.48325c-1.25417,4.98083 -2.12133,13.99292 -2.20375,24.41325c-0.00717,0.72025 -0.00717,1.44767 -0.00717,2.17508c0.04658,16.55142 2.05325,29.885 4.51858,29.885z" fill="url(#color-20_FYJ9HNSqf_uK_gr20)" opacity="0.727"></path><path d="M23.75392,134.47533h8.31692c7.009,0 13.58083,3.17483 18.12092,8.514c2.46533,2.89892 5.44308,5.24242 8.80783,6.58258c4.73,1.88483 19.29983,2.5585 32.85917,2.76275c1.37958,0.0215 2.752,0.03583 4.09933,0.04658c11.223,0.09317 20.81917,-0.1075 21.72217,-0.11467c2.73767,-0.0215 5.02383,-0.93167 6.63275,-2.15358c0.92092,-0.69875 1.81675,-1.45842 2.55133,-2.365c-1.25775,0.65933 -2.73408,0.97825 -4.36092,0.731c-0.00358,-0.14333 -1.96008,-0.49092 -5.0955,-1.01408c-4.89842,0.05733 -12.10808,0.10033 -19.70833,0c-3.70517,-0.05017 -7.5035,-0.13258 -11.17283,-0.26875c-9.58183,-0.35117 -18.26067,-1.032 -22.00525,-2.3435c-1.22192,-0.42642 -2.35783,-0.97108 -3.39342,-1.59458c-2.01383,-1.21475 -3.85925,-2.78067 -5.48967,-4.59383c-1.03917,-1.15383 -2.14642,-2.236 -3.311,-3.23575c-4.00258,-3.43283 -9.01925,-5.48608 -14.33333,-5.70825c-0.33683,-0.086 -5.65092,-0.129 -6.00208,-0.129h-2.236c-0.80267,0 -2.65883,-1.71642 -3.26442,-4.63325c-1.31508,-4.51858 -2.24675,-13.63817 -2.3435,-24.34158c-0.01792,-2.99208 0.02508,-5.92325 0.129,-8.729c0.1935,-5.14208 0.58767,-9.73592 1.118,-13.416c-0.01433,-0.85642 -0.0215,-1.64833 -0.0215,-2.36858c0.10033,-0.44792 -0.0645,-0.86 0.03942,-1.24342h-1.45125c-0.61275,0 -1.93142,1.00692 -2.44025,2.79142c-1.29,4.90558 -2.18583,13.9965 -2.279,24.553c-0.00717,0.72383 -0.01075,1.45483 -0.00717,2.18942c0.02867,16.64817 2.03892,30.08208 4.51858,30.08208z" fill="url(#color-21_FYJ9HNSqf_uK_gr21)" opacity="0.818"></path><path d="M23.10175,135.1275h8.31692c7.009,0 13.58083,3.17483 18.12092,8.514c2.46533,2.89892 5.44308,5.24242 8.80783,6.58258c4.76942,1.89917 19.53633,2.57283 33.196,2.76633c1.3975,0.0215 2.78067,0.03583 4.14233,0.04658c11.62075,0.08958 21.47492,-0.12542 21.93,-0.129c2.6015,-0.01792 4.902,-0.97108 6.65067,-2.38292c0.92092,-0.74533 1.78092,-1.591 2.48683,-2.56208c-1.45125,0.87433 -3.12825,1.38317 -4.93067,1.25775c-0.00358,-0.07167 -2.20733,-0.21858 -5.73692,-0.45508c-4.92708,0.05733 -12.18692,0.10033 -19.82658,-0.00358c-3.73383,-0.05017 -7.55725,-0.13617 -11.2445,-0.27233c-9.72158,-0.35833 -18.49,-1.07142 -22.11275,-2.41875c-1.19683,-0.44792 -2.32917,-1.0105 -3.38267,-1.67342c-2.01025,-1.25058 -3.84492,-2.86308 -5.46458,-4.71208c-1.032,-1.17892 -2.15,-2.26825 -3.33967,-3.25367c-4.085,-3.38625 -9.17692,-5.36425 -14.54475,-5.47533c-0.16842,-0.043 -5.85875,-0.0645 -6.03792,-0.0645h-2.23958c-0.88867,0 -2.27183,-1.90633 -2.9455,-5.14925c-1.23267,-5.02383 -2.07117,-14.104 -2.11775,-24.56733c-0.01075,-3.03508 0.04658,-5.98775 0.16125,-8.78992c0.215,-5.21017 0.63425,-9.83983 1.19325,-13.49483c0.07883,-0.96392 0.16842,-1.849 0.26517,-2.64808c0.11108,-0.4945 0.08958,-0.95675 0.20783,-1.37958h-1.45125c-0.68083,0 -1.69492,1.12158 -2.26108,3.10317c-1.32225,4.83033 -2.24675,14.00367 -2.35425,24.69275c-0.00717,0.72742 -0.01075,1.462 -0.01075,2.20017c0.01792,16.73058 2.03533,30.26842 4.52217,30.26842z" fill="url(#color-22_FYJ9HNSqf_uK_gr22)" opacity="0.909"></path><path d="M121.13817,149.96608c-0.00358,0 -12.56675,0.28667 -26.32675,0.09675c-13.76,-0.18992 -28.724,-0.86 -33.53283,-2.7735c-3.36475,-1.34017 -6.3425,-3.68367 -8.80783,-6.58258c-4.54008,-5.33558 -11.1155,-8.514 -18.12092,-8.514h-8.31692c-2.49758,0 -4.51858,-13.63817 -4.51858,-30.45833c0,-11.64225 0.97108,-21.74725 2.39367,-26.875h-1.45842c-2.49758,0 -4.51858,13.63817 -4.51858,30.45833c0,16.82017 2.02458,30.45833 4.51858,30.45833h8.31692c7.009,0 13.58083,3.17483 18.12092,8.514c2.46533,2.89892 5.44308,5.24242 8.80783,6.58258c4.80883,1.9135 19.76925,2.58358 33.53283,2.7735c13.76358,0.18992 26.32317,-0.09675 26.32675,-0.09675c3.68008,0 7.052,-2.25033 9.08733,-5.36783c-1.64475,1.08933 -3.51883,1.7845 -5.504,1.7845z" fill="#e5a015"></path></g><path d="M140.051,140.67808c-0.946,-6.923 -7.32433,-11.76767 -14.24733,-10.82525c-2.72333,0.37267 -5.10625,1.60533 -6.96242,3.36117l-10.62817,4.76583c-0.43,-0.02508 -0.86358,-0.02508 -1.30433,0.03942c-4.02408,0.59125 -6.80117,4.86617 -6.20275,9.546c0.55542,4.35375 3.83775,7.482 7.53217,7.42467l20.06667,-0.03583c0.30817,-0.01792 0.61275,0.01075 0.9245,-0.03225c6.923,-0.94242 11.76767,-7.32075 10.82167,-14.24375z" fill="url(#color-23_FYJ9HNSqf_uK_gr23)"></path><path d="M149.08817,122.29917c-0.98183,-8.09117 -8.342,-13.85317 -16.43317,-12.87133c-3.28592,0.39775 -6.15258,1.88483 -8.37425,4.00975l-16.35433,4.2785c-4.71208,0.98542 -7.9765,5.98058 -7.35658,11.53117c0.60558,5.41442 4.69058,9.34175 9.33817,9.27725l24.99733,0.23292c0.43717,-0.01433 0.86358,0.02867 1.30433,-0.02508c8.09833,-0.98183 13.86392,-8.33842 12.8785,-16.43317z" fill="url(#color-24_FYJ9HNSqf_uK_gr24)"></path><path d="M153.27708,100.98908c-1.06425,-8.08042 -8.48175,-13.76717 -16.56217,-12.70292c-0.45867,0.06092 -24.99017,8.44592 -24.99017,8.44592c-4.816,0.9245 -8.127,6.02717 -7.43542,11.64942c0.63425,5.14567 4.40033,8.944 8.76842,9.20917c0,0 26.90008,0.043 27.51642,-0.03942c8.08042,-1.06425 13.76717,-8.47817 12.70292,-16.56217z" fill="url(#color-25_FYJ9HNSqf_uK_gr25)"></path><path d="M153.97225,81.38825c-0.85642,-7.09142 -7.15592,-12.15825 -14.2115,-11.61717c0,0 -0.94242,0.10392 -1.13233,0.13617l-24.25917,4.00975c-4.65117,1.075 -7.85108,6.28875 -7.21683,12.10092c0.61633,5.65808 4.63683,9.79325 9.23067,9.83267l24.56017,0.35833c0.47658,-0.00717 0.94242,0.02867 1.42617,-0.02867c7.2885,-0.87792 12.48433,-7.49992 11.60283,-14.792z" fill="url(#color-26_FYJ9HNSqf_uK_gr26)"></path><path d="M69.39842,109.62133c-14.20792,-2.87383 -27.23333,2.24317 -29.0895,11.42367c-1.85617,9.1805 8.15567,18.95583 22.36717,21.82608c14.2115,2.87025 27.23333,-2.24317 29.0895,-11.42367c1.85617,-9.1805 -8.15567,-18.95225 -22.36717,-21.82608z" fill="url(#color-27_FYJ9HNSqf_uK_gr27)" opacity="0.59"></path><path d="M98.126,65.53558c-0.86,6.61842 -2.94192,13.33 -6.15975,19.61517c-1.978,3.85925 -4.39675,7.5895 -7.16308,10.96858c-4.644,5.67242 -10.48483,10.63533 -17.12117,13.87825c-2.24317,1.0965 -4.59383,1.96008 -6.99825,2.61583c-2.19658,0.59483 -5.02742,1.53008 -7.32433,1.20042c-0.64858,-0.00358 -1.29358,-0.15408 -1.83108,-0.53033c-0.46583,-0.32967 -0.817,-0.82058 -0.89225,-1.39392c-0.00717,-0.04658 -0.01075,-0.09675 -0.01433,-0.14333c-0.06092,-1.2255 1.11083,-2.279 2.71617,-2.3435c13.27625,-0.7095 26.87142,-10.99008 34.69383,-26.26225c3.20708,-6.26367 5.17792,-12.96092 5.848,-19.49692z" fill="url(#color-28_FYJ9HNSqf_uK_gr28)" opacity="0.59"></path><path d="M72.9925,98.04358c-10.87542,9.24142 -24.11225,11.53117 -29.56967,5.11342c-5.45383,-6.41775 -1.06067,-19.1135 9.81475,-28.35492c10.87542,-9.24142 24.11225,-11.53117 29.56967,-5.11342c5.45742,6.41775 1.06067,19.1135 -9.81475,28.35492z" fill="url(#color-29_FYJ9HNSqf_uK_gr29)" opacity="0.72"></path><ellipse cx="36.522" cy="23.251" transform="scale(3.58333,3.58333)" rx="5.925" ry="2.58" fill="url(#color-30_FYJ9HNSqf_uK_gr30)" opacity="0.5"></ellipse><ellipse cx="35.566" cy="30.144" transform="scale(3.58333,3.58333)" rx="5.925" ry="2.261" fill="url(#color-31_FYJ9HNSqf_uK_gr31)" opacity="0.5"></ellipse><ellipse cx="34.513" cy="35.984" transform="scale(3.58333,3.58333)" rx="5.925" ry="2.261" fill="url(#color-32_FYJ9HNSqf_uK_gr32)" opacity="0.5"></ellipse><ellipse cx="33.184" cy="40.896" transform="scale(3.58333,3.58333)" rx="4.245" ry="1.62" fill="url(#color-33_FYJ9HNSqf_uK_gr33)" opacity="0.5"></ellipse></g></g></svg>